<svg viewBox="0 0 800 600" xmlns="http://www.w3.org/2000/svg" xmlns:xlink="http://www.w3.org/1999/xlink"><defs><linearGradient id="e"><stop offset="0"/><stop stop-color="#0c1209" offset=".393"/><stop stop-color="#080f08" offset=".683"/><stop stop-color="#223224" offset=".821"/><stop stop-color="#2b4d38" offset="1"/></linearGradient><linearGradient id="c"><stop stop-color="#3a3a3a" offset="0"/><stop stop-color="#181818" offset="1"/></linearGradient><linearGradient id="a"><stop offset="0"/><stop stop-color="#3e3e3e" offset=".5"/><stop offset="1"/></linearGradient><linearGradient id="b"><stop stop-color="#181818" offset="0"/><stop offset=".419"/><stop stop-color="#282828" offset=".839"/><stop stop-color="#999" offset="1"/></linearGradient><filter id="T" color-interpolation-filters="sRGB"><feGaussianBlur stdDeviation=".314"/></filter><filter id="R" color-interpolation-filters="sRGB"><feGaussianBlur stdDeviation=".418"/></filter><filter id="C" color-interpolation-filters="sRGB"><feGaussianBlur stdDeviation=".719"/></filter><filter id="aM" color-interpolation-filters="sRGB"><feGaussianBlur stdDeviation=".286"/></filter><filter id="E" color-interpolation-filters="sRGB"><feGaussianBlur stdDeviation=".733"/></filter><filter id="ao" color-interpolation-filters="sRGB"><feGaussianBlur stdDeviation="3.789"/></filter><filter id="av" x="-.122" y="-.118" width="1.244" height="1.236" color-interpolation-filters="sRGB"><feGaussianBlur stdDeviation="2.731"/></filter><filter id="ar" color-interpolation-filters="sRGB"><feGaussianBlur stdDeviation="1.863"/></filter><filter id="m" color-interpolation-filters="sRGB"><feGaussianBlur stdDeviation="3.412"/></filter><filter id="s" color-interpolation-filters="sRGB"><feGaussianBlur stdDeviation=".553"/></filter><filter id="G" x="-.08" y="-.238" width="1.161" height="1.475" color-interpolation-filters="sRGB"><feGaussianBlur stdDeviation="2.258"/></filter><filter id="ag" color-interpolation-filters="sRGB"><feGaussianBlur stdDeviation=".39"/></filter><filter id="ae" color-interpolation-filters="sRGB"><feGaussianBlur stdDeviation=".682"/></filter><filter id="aJ" x="-.11" y="-.12" width="1.221" height="1.241" color-interpolation-filters="sRGB"><feGaussianBlur stdDeviation=".858"/></filter><filter id="k" color-interpolation-filters="sRGB"><feGaussianBlur stdDeviation="6.794"/></filter><radialGradient id="r" cx="380.1" cy="331.86" r="70.672" gradientTransform="matrix(1.605 -.40671 .526 2.0758 -461.25 -473.43)" gradientUnits="userSpaceOnUse" xlink:href="#a"/><radialGradient id="aL" cx="330.62" cy="323.49" r="44.376" gradientTransform="rotate(-134.999 686.32 586.32) scale(3.0918 1.6799)" gradientUnits="userSpaceOnUse" xlink:href="#a"/><radialGradient id="F" cx="504.19" cy="348.81" r="39.555" gradientTransform="matrix(1.1201 .15169 -.05722 .42256 -45.335 130.68)" gradientUnits="userSpaceOnUse"><stop offset="0"/><stop stop-color="#0e0e0e" offset=".821"/><stop stop-color="#1d1d1d" offset="1"/></radialGradient><radialGradient id="P" cx="485.62" cy="423.01" r="6.322" gradientTransform="translate(-418.17 -410.75) scale(1.9387)" gradientUnits="userSpaceOnUse" xlink:href="#b"/><radialGradient id="Q" cx="523.85" cy="402.95" r="14.081" gradientTransform="translate(-269.96 -210.98) scale(1.5155)" gradientUnits="userSpaceOnUse" xlink:href="#c"/><radialGradient id="S" cx="523.85" cy="402.95" r="14.081" gradientTransform="matrix(1.5155 0 0 -1.5155 -269.94 1029.5)" gradientUnits="userSpaceOnUse" xlink:href="#c"/><radialGradient id="U" cx="524.28" cy="403.4" r="14.081" gradientTransform="matrix(3.9718 -.85467 .40322 1.8738 -2033.9 110.82)" gradientUnits="userSpaceOnUse" xlink:href="#b"/><linearGradient id="ad" x1="95.125" x2="68.25" y1="176.12" y2="145" gradientTransform="translate(25.039 240.69)" gradientUnits="userSpaceOnUse" xlink:href="#b"/><linearGradient id="aI" x1="92.772" x2="114.26" y1="410.34" y2="394.96" gradientTransform="translate(-1.375 5.125)" gradientUnits="userSpaceOnUse" xlink:href="#b"/><linearGradient id="af" x1="91.005" x2="74.474" y1="171.44" y2="151.64" gradientUnits="userSpaceOnUse" xlink:href="#b"/><linearGradient id="ah" x1="88.19" x2="102.98" y1="489.71" y2="486.5" gradientTransform="matrix(-1 0 0 1 181.04 166.17)" gradientUnits="userSpaceOnUse" xlink:href="#a"/><linearGradient id="aP" x1="89.912" x2="97.368" y1="485.05" y2="485.82" gradientTransform="rotate(180 90.52 487.535)" gradientUnits="userSpaceOnUse" xlink:href="#a"/><linearGradient id="ac" x1="351.95" x2="454.49" y1="656.01" y2="533.05" gradientTransform="translate(-25.739 -17.152)" gradientUnits="userSpaceOnUse" xlink:href="#b" spreadMethod="reflect"/><linearGradient id="ab" x1="781.88" x2="787.14" y1="856.83" y2="849.39" gradientTransform="translate(-25.739 -17.152)" gradientUnits="userSpaceOnUse" spreadMethod="reflect"><stop stop-color="#0b0b0b" offset="0"/><stop offset=".027"/><stop stop-color="#121212" offset=".393"/><stop stop-color="#313131" offset=".683"/><stop stop-color="#2a2a2b" offset=".821"/><stop stop-color="#282828" offset="1"/></linearGradient><linearGradient id="aa" x1="272.65" x2="417.46" y1="741.64" y2="511.49" gradientUnits="userSpaceOnUse" xlink:href="#b" spreadMethod="reflect"/><radialGradient id="L" cx="471.81" cy="231.55" r="37.67" gradientTransform="matrix(1.0239 -.23606 .07994 .33094 -41.447 364.9)" gradientUnits="userSpaceOnUse" xlink:href="#a" spreadMethod="reflect"/><radialGradient id="K" cx="511.71" cy="336.38" r="37.67" gradientTransform="matrix(.66263 .68167 -.25988 .16939 249.96 -71.647)" gradientUnits="userSpaceOnUse" xlink:href="#a" spreadMethod="reflect"/><linearGradient id="I" x1="521.35" x2="525.75" y1="337.06" y2="337.81" gradientTransform="translate(-3.535)" gradientUnits="userSpaceOnUse" xlink:href="#a" spreadMethod="reflect"/><linearGradient id="H" x1="464.61" x2="469.1" y1="353.99" y2="354.74" gradientTransform="translate(-3.535)" gradientUnits="userSpaceOnUse" xlink:href="#a" spreadMethod="reflect"/><radialGradient id="A" cx="348.14" cy="436.78" r="5.8" gradientUnits="userSpaceOnUse" xlink:href="#b"/><radialGradient id="z" cx="485.62" cy="423.01" r="6.322" gradientTransform="translate(-9.515 -1.414)" gradientUnits="userSpaceOnUse" xlink:href="#b"/><linearGradient id="v" x1="345.04" x2="332.55" y1="271.47" y2="291.62" gradientTransform="translate(-67.554 -274.32)" gradientUnits="userSpaceOnUse" xlink:href="#d"/><linearGradient id="p" x1="432.88" x2="533.55" y1="807.83" y2="547.39" gradientTransform="translate(-23.739 -15.152)" gradientUnits="userSpaceOnUse" xlink:href="#b" spreadMethod="reflect"/><radialGradient id="aG" cx="577.79" cy="851.58" r="124.97" gradientTransform="matrix(1.3027 .75211 -3.1804 5.5086 2393.6 -4258.1)" gradientUnits="userSpaceOnUse" xlink:href="#b"/><filter id="aH" color-interpolation-filters="sRGB"><feGaussianBlur stdDeviation="4.449"/></filter><radialGradient id="W" cx="481.15" cy="420.84" r="6.322" gradientTransform="matrix(5.3869 -9.3303 3.6788 2.7919 -4004 3474)" gradientUnits="userSpaceOnUse" xlink:href="#b"/><filter id="V" color-interpolation-filters="sRGB"><feGaussianBlur stdDeviation="1.01"/></filter><filter id="al" color-interpolation-filters="sRGB"><feGaussianBlur stdDeviation="1.255"/></filter><radialGradient id="ak" cx="454.13" cy="671.66" r="122.03" gradientTransform="rotate(45 890.646 -45.644) scale(2.30503 1.05695)" gradientUnits="userSpaceOnUse" xlink:href="#a"/><linearGradient id="an" x1="426.44" x2="556.15" y1="531.11" y2="667.56" gradientUnits="userSpaceOnUse"><stop stop-color="#0b0b0b" offset="0"/><stop offset=".027"/><stop stop-color="#121212" offset=".372"/><stop stop-color="#777868" offset=".683"/><stop stop-color="#2d302f" offset=".842"/><stop stop-color="#4ea797" offset="1"/></linearGradient><radialGradient id="d" cx="577.04" cy="768.64" r="90.513" gradientTransform="matrix(1 0 0 1.0583 0 -37.78)" gradientUnits="userSpaceOnUse"><stop stop-color="#c3c3c3" offset="0"/><stop stop-color="#2c2c2c" offset="1"/></radialGradient><radialGradient id="au" cx="499.87" cy="663.99" r="26.881" gradientTransform="matrix(1.7679 -.82383 1.1661 2.5023 -1136.8 -605.96)" gradientUnits="userSpaceOnUse"><stop stop-color="#3c593f" offset="0"/><stop stop-color="#815f37" offset=".5"/><stop stop-color="#1f331c" offset="1"/></radialGradient><linearGradient id="at" x1="754.62" x2="505.81" y1="740.8" y2="560.42" gradientTransform="translate(23.753 27.657) scale(.96391)" gradientUnits="userSpaceOnUse" xlink:href="#a" spreadMethod="reflect"/><radialGradient id="as" cx="489.25" cy="655.96" r="26.881" gradientTransform="matrix(.18279 1.9443 -2.6494 .24907 2145.9 -480.1)" gradientUnits="userSpaceOnUse" xlink:href="#e"/><linearGradient id="ap" x1="484.75" x2="591.66" y1="540.1" y2="639.1" gradientTransform="translate(23.753 27.657) scale(.96391)" gradientUnits="userSpaceOnUse" xlink:href="#e"/><linearGradient id="f" x1="444.45" x2="635.13" y1="650.14" y2="650.14" gradientTransform="translate(23.753 27.657) scale(.96391)" gradientUnits="userSpaceOnUse"><stop stop-color="#0f0f0f" offset="0"/><stop stop-color="#0f0f0f" stop-opacity="0" offset="1"/></linearGradient><radialGradient id="aj" cx="579.53" cy="630.24" r="122.04" gradientTransform="rotate(45 817.151 578.854) scale(1.25957 1.30516)" gradientUnits="userSpaceOnUse"><stop offset="0"/><stop stop-color="#434343" offset=".5"/><stop offset="1"/></radialGradient><radialGradient id="ay" cx="485.77" cy="423.94" r="6.322" gradientTransform="matrix(1.7848 0 0 1.0276 -693.66 -23.904)" gradientUnits="userSpaceOnUse" xlink:href="#a"/><radialGradient id="aC" cx="485.38" cy="425.22" r="6.322" gradientTransform="matrix(1.7193 0 0 .98986 -625.7 -14.158)" gradientUnits="userSpaceOnUse" xlink:href="#a"/><radialGradient id="Y" cx="497.99" cy="429.97" r="6.322" gradientTransform="matrix(5.7699 -2.1811 -2.1493 -5.6857 -1408.7 3916)" gradientUnits="userSpaceOnUse" xlink:href="#a"/><radialGradient id="X" cx="485.99" cy="423.13" r="6.322" gradientTransform="matrix(2.3522 0 0 2.3742 -610.34 -591.4)" gradientUnits="userSpaceOnUse" xlink:href="#a"/><filter id="ax" color-interpolation-filters="sRGB"><feGaussianBlur stdDeviation="1.237"/></filter><radialGradient id="o" cx="373.67" cy="909.76" r="183.66" gradientTransform="matrix(.58557 -1.0142 2.4801 1.4319 -1762.6 -415.67)" gradientUnits="userSpaceOnUse" xlink:href="#b" spreadMethod="reflect"/><radialGradient id="aF" cx="700.61" cy="864.88" r="124.97" gradientTransform="matrix(1.1896 -1.1896 2.7915 2.8049 -2750.7 -699.67)" gradientUnits="userSpaceOnUse" xlink:href="#b" spreadMethod="reflect"/><filter id="q" color-interpolation-filters="sRGB"><feGaussianBlur stdDeviation="1.885"/></filter><linearGradient id="x" x1="190.88" x2="488.71" y1="11.498" y2="181.62" gradientTransform="translate(0 -6.18)" gradientUnits="userSpaceOnUse" xlink:href="#a"/><linearGradient id="M" x1="-15.6" x2="242.09" y1="560.36" y2="523.51" gradientTransform="translate(-67.554 -274.32)" gradientUnits="userSpaceOnUse" xlink:href="#a"/><radialGradient id="h" cx="831.12" cy="579.85" r="244.35" gradientTransform="matrix(1.3763 0 0 1.3195 -50.95 -57.397)" gradientUnits="userSpaceOnUse" xlink:href="#a" spreadMethod="reflect"/><linearGradient id="l" x1="403.7" x2="414.17" y1="138.04" y2="235.31" gradientUnits="userSpaceOnUse" xlink:href="#a"/><linearGradient id="aN" x1="135.12" x2="155.82" y1="120" y2="158.91" gradientUnits="userSpaceOnUse" xlink:href="#a"/><linearGradient id="Z" x1="184.22" x2="230.84" y1="427.91" y2="427.91" gradientUnits="userSpaceOnUse" xlink:href="#a"/><radialGradient id="aO" cx="516.23" cy="644.35" r="60.206" gradientTransform="matrix(.95911 .09614 -.09057 .90351 84.592 17.03)" gradientUnits="userSpaceOnUse" xlink:href="#a"/><linearGradient id="O" x1="46.755" x2="311.73" y1="109.42" y2="109.42" gradientUnits="userSpaceOnUse" xlink:href="#a"/><filter id="j" color-interpolation-filters="sRGB"><feGaussianBlur stdDeviation="1.96"/></filter><linearGradient id="i" x1="213.14" x2="433.65" y1="334.66" y2="-86.826" gradientUnits="userSpaceOnUse" xlink:href="#a"/><radialGradient id="t" cx="331.2" cy="369.19" r="64.445" gradientTransform="matrix(1.9409 0 0 1.1727 -332.83 -69.134)" gradientUnits="userSpaceOnUse" xlink:href="#a"/><linearGradient id="w" x1="381.3" x2="393.85" y1="290.48" y2="273.51" gradientTransform="translate(-67.554 -274.32)" gradientUnits="userSpaceOnUse" xlink:href="#d"/><linearGradient id="u" x1="345" x2="346.12" y1="57.875" y2="71.269" gradientTransform="translate(-49.728 -43.273)" gradientUnits="userSpaceOnUse" xlink:href="#a"/><radialGradient id="aw" cx="554.59" cy="901.65" r="126.8" gradientTransform="rotate(135 1599.32 1332.892) scale(3.4316 3.1984)" gradientUnits="userSpaceOnUse" xlink:href="#a"/><radialGradient id="aq" cx="577.04" cy="768.64" r="90.513" gradientTransform="matrix(1 0 0 1.0583 0 -37.78)" gradientUnits="userSpaceOnUse" xlink:href="#d"/><linearGradient id="J" x1="440.68" x2="439.01" y1="312.81" y2="342.29" gradientUnits="userSpaceOnUse" xlink:href="#a"/><radialGradient id="B" cx="195.7" cy="495.2" r="40.19" gradientTransform="matrix(2.1799 -.12441 .0174 .30547 -307.09 93.39)" gradientUnits="userSpaceOnUse" xlink:href="#b"/><radialGradient id="D" cx="167.42" cy="136.54" r="37.766" gradientTransform="matrix(.00919 .44324 -.12861 .00331 208.69 124.94)" gradientUnits="userSpaceOnUse" xlink:href="#a" spreadMethod="reflect"/><linearGradient id="aK" x1="219.12" x2="219.12" y1="50.802" y2="166.95" gradientUnits="userSpaceOnUse" xlink:href="#a"/><radialGradient id="aB" cx="495.8" cy="433.71" r="6.322" gradientTransform="matrix(2.9869 .32522 -1.1126 .84776 -831.63 -114.31)" gradientUnits="userSpaceOnUse" xlink:href="#b"/><radialGradient id="aA" cx="171.62" cy="412.37" r="7.9" gradientTransform="matrix(3.2167 0 0 1.5881 -381.74 -240.88)" gradientUnits="userSpaceOnUse" xlink:href="#a"/><linearGradient id="az" x1="164.31" x2="180.11" y1="410.27" y2="410.27" gradientUnits="userSpaceOnUse" xlink:href="#a"/><radialGradient id="aE" cx="207.98" cy="406.89" r="7.9" gradientTransform="matrix(2.8174 0 0 1.4396 -380.22 -178.23)" gradientUnits="userSpaceOnUse"><stop offset="0"/><stop stop-color="#434343" offset=".5"/><stop offset="1"/></radialGradient><linearGradient id="aD" x1="201.31" x2="217.11" y1="404.27" y2="404.27" gradientUnits="userSpaceOnUse" xlink:href="#a"/><filter id="N" color-interpolation-filters="sRGB"><feGaussianBlur stdDeviation="3.161"/></filter><linearGradient id="n" x1="633.31" x2="399.08" y1="389.35" y2="660.09" gradientUnits="userSpaceOnUse" xlink:href="#a" spreadMethod="reflect"/><filter id="y" color-interpolation-filters="sRGB"><feGaussianBlur stdDeviation=".827"/></filter><radialGradient id="ai" cx="1432.4" cy="99.821" r="125.62" gradientTransform="matrix(.42527 -.32156 .3446 .45574 788.84 512.4)" gradientUnits="userSpaceOnUse" xlink:href="#a"/><linearGradient id="am" x1="444.45" x2="635.13" y1="650.14" y2="650.14" gradientTransform="translate(23.753 27.657) scale(.96391)" gradientUnits="userSpaceOnUse" xlink:href="#f"/><linearGradient id="g" x1="90.917" x2="145.08" y1="457.78" y2="964.18" gradientTransform="matrix(.9402 0 0 .60143 21.929 57.539)" gradientUnits="userSpaceOnUse" xlink:href="#f" spreadMethod="reflect"/></defs><path d="M98.438 407c.02 16.867.153 33.717 1.313 50.562-3.495 18.268 12.91 33.905 34.093 45 28.995 19.275 73.727 15.71 111.06 12.375 12.48-7.224-.168-22.013 24.25-18.781l97.22-5.844c12.2 4.42 24.705 14.386 37.53 20.47 22.602 13.61 49.912 23.653 78.594 30.905 54.016 10.61 114.97-4.675 146.75-34.062 34.02-28.46 39.758-71.717 4.844-100.62H98.432z" fill="url(#g)"/><path transform="translate(81.582 17.47)" d="M250.5 25.188c-14.183 1.972-26.948 11.655-31.718 16.375-12.362 11.905-14.47 21.172-20.438 35.719-3.288 7.919-13.469 12.781-13.469 12.781l-129.71 20.81s-5.667 1.37-8.056 2.808c-4.055 2.341-5.09 3.742-9.451 5.287-5.907 2.266-11.307 3.438-11.721 13.751-22.682 48.933-13.706 46.255-14.25 88.5-.808 62.71.265 106.93 1.75 172 4.505 30.757 16.045 36.787 20.375 41.562 20.082 22.15 39.345 44.896 94.875 40.781 10.052-.744 22.73-1.64 35.312-3.156 10.25-1.234 11.343-9.625 11.094-17.312-.163-5.005-.472-9.058-.657-12.875l122.17-11.56 202.07-213.04c-.394-21.083 2.1-42.806-1.906-65.719-3.915-23.614-8.596-38.192-13.844-45.812l-8.82-10.965-13.43-10.969c-.586-2.945 1.327-1.141 1.656-4.281 2.182-20.765-3.154-14.028-24.375-24.656-6.985-3.499-27.664-8.036-37.406-5.187-2.849.833-8.468 9.687-8.468 9.687-14.04-16.091-46.88-38.126-46.88-38.126z" fill="url(#h)"/><path transform="translate(87.763 31.55) scale(.9733)" d="M239.06 156.19s-43.349 6.067-63.688 10.344v269.41l112.31-10.625c-65.58.22-94.022-170.14-53.312-242.47 3.9-6.93 4.688-26.656 4.688-26.656z" fill="url(#i)" filter="url(#j)"/><path d="M324.59 308.52c.508 3.269-3.034 3.465-5.156 3.75-2.736 3.031-5.17 7.82-10.094 6.969-5.45-.35-11.267.59-14.781 5.031-10.124 8.698-16.668 20.902-19.938 33.781-3.574 9.605-12.942 16.172-23.22 16.156-17.573 2.29-35.098 5.408-52.468 8.438-23.88 1.99-49.517-.358-71.125 11.594-4.016 2.554-9.99 1.435-13.188 5.125-1.75 4.713-1.161 10.09-3.625 14.656-6.794 14.653-13.513 29.862-12.22 46.438 2.442 44.401-.198 88.91 1.626 133.34.683 22.196-.317 44.6 2.781 66.625 2.386 11.565-2.638 23.612 6.125 31.188 14.469 17.4 38.829 38.659 62.219 39.719 19.016 1.799 45.327.651 64.031-2.25.568 4.864 1.8.802-1.594 4.406-20.887 3.333-42.565 5.954-63.875 3.937-24.935-1.13-46.638-17.387-62.062-35.938-9.342-8.076-16.769-18.796-19.312-31.125-3.302-23.479-2.24-47.368-2.969-71.03-1.944-47.369.884-94.822-1.718-142.16-1.38-17.672 5.757-33.88 13-49.5 2.626-4.87 2.01-10.6 3.875-15.626 3.41-3.933 9.781-2.746 14.062-5.469 23.035-12.74 50.356-10.222 75.812-12.344 18.517-3.23 37.202-6.559 55.938-9 10.955.017 20.94-6.979 24.75-17.219 3.485-13.73 10.488-26.758 21.28-36.03 3.747-4.736 9.94-5.748 15.75-5.376 5.25.907 7.834-4.174 14.712-7.078-2.243 1.548 1.554 6.353 1.382 8.985z" filter="url(#k)" opacity=".27" transform="translate(14.028 -250.67)"/><path transform="translate(81.582 17.47)" d="M427.56 133.56l-141.88 11.344c-13.741 1.892-15.763 11.156-16.531 13.719l-13.719 73.781-5.656 21.281 180.44-45.438c10.34-26.692-23.596-61.536-2.656-74.688z" color="#000" fill="url(#l)" filter="url(#m)"/><path d="M449.38 436.69c-47.114.135-95.862 29.139-122.84 77.969-30.871 55.868-24.501 121.56 12.95 158.83 109.82 103.78 96.058 82.473 134.3 105.34 16.918 8.65 41.446 11.363 60.066 10.696 46.61-1.67 94.183-30.844 120.84-79.081 28.907-52.313 24.714-111.7-6.217-149.88-4.492-5.545-8.886-11.65-13.556-17.602-2.335-2.976-4.739-5.913-7.258-8.724s-5.155-5.493-7.952-7.96c-35.98-31.74-77.07-57.19-120.96-77.98-15.282-7.235-32.334-11.674-49.375-11.625z" color="#000" fill="url(#n)" transform="translate(14.028 -250.67)"/><path d="M563.15 521.49c-47.645.136-96.902 29.395-124.19 78.594-37.155 66.995-19.437 145.68 39.594 175.75 16.602 8.458 34.575 11.4 45.003 11.632 10.428.231 11.642.17 12.855.09 45.438-2.977 91.367-31.145 117.33-78.128 28.907-52.313 24.712-111.72-6.219-149.91-27.249-23.507-7.406-6.469-7.406-6.469s-16.735-14.598-27.031-19.844c-15.68-7.988-32.704-11.768-49.938-11.719z" color="#000" fill="url(#o)" transform="translate(14.028 -250.67)"/><path d="M481.88 447.84c-3.815.018-7.902.094-12.469.094-81.265 0-150.03 68.303-150.03 149.47 0 28.195 6.387 53.226 19.125 75.062.327.335.637.67.969 1a4279.992 4279.992 0 0 0 23.125 21.688c-18.02-24.525-27.031-53.59-27.031-87.125 0-81.166 68.766-149.47 150.03-149.47 4.566 0 8.653-.076 12.469-.094 10.73-.05 19.21.38 29.375 4.375a613.932 613.932 0 0 0-27.125-13.781c-5.906-1.093-11.737-1.25-18.438-1.219zm105.5 57.875c2.814 2.315 5.628 4.34 6.188 3.594a.77.77 0 0 0 .156-.469 173.226 173.226 0 0 0-6.344-3.125zM422.5 735.375a104.867 104.867 0 0 0 7.156 8c-1.847-2.375-4.174-5.056-7.156-8z" color="#000" fill="url(#p)" opacity=".614" transform="translate(14.028 -250.67)"/><path d="M445.66 434.06c-76.525 0-141.28 64.318-141.28 140.75 0 26.55 6.005 50.125 18 70.688.308.315.593.626.906.937 1.934 1.828 3.664 3.462 5.5 5.188-.048-.085-.107-.165-.156-.25-.482-.844-.946-1.705-1.406-2.563-.224-.416-.438-.83-.656-1.25-.195-.373-.373-.749-.563-1.125-.112-.22-.233-.434-.344-.656-.448-.901-.887-1.803-1.312-2.719-.457-.982-.883-1.97-1.313-2.968-.428-.995-.848-1.99-1.25-3-.124-.314-.253-.623-.375-.938-.267-.69-.526-1.397-.781-2.094-.325-.888-.664-1.789-.969-2.687-.045-.135-.08-.272-.125-.406a121.45 121.45 0 0 1-.656-2c-.118-.374-.229-.75-.344-1.125-.008-.022-.023-.041-.03-.063-5.417-15.14-8.126-31.63-8.126-49.469 0-70.44 55.007-130.6 123.53-139.59.9-.166 1.817-.323 2.719-.469.896-.145 1.79-.281 2.687-.406 1.43-.199 2.852-.352 4.282-.5.866-.09 1.727-.178 2.593-.25.115-.009.23-.022.344-.031.966-.077 1.941-.134 2.906-.188l.594-.03c.552-.028 1.104-.044 1.656-.063 1.228-.044 2.462-.09 3.688-.094 2.819-.008 5.626.114 8.437.344-5.96-1.478-13.238-2.972-18.156-2.97z" color="#000" fill="#1a1a1a" filter="url(#q)" transform="translate(14.028 -250.67)"/><path transform="translate(81.582 23.65)" d="M348.06 18.5l-111.94 9.688c8.336 5.304 22.117 11.719 45.062 22.875 22.47 10.923 70.42 39.471 82.875 27.374 6.886-6.687 8.188-14.245 8.188-22.75 0-11.75-18.875-34.5-18.875-34.5a69.417 69.417 0 0 0-5.313-2.687z" color="#000" fill="url(#r)" filter="url(#s)"/><path d="M308.85 296.9c7.473 5.058 20.813 16.829 42.521 27.383 19.926 9.688 66.424 38.259 77.469 27.531 6.106-5.93 6.935-16.349 5.656-23.781-22.747-73.122-96.124-29.873-125.65-31.133z" color="#000" fill="url(#t)" opacity=".922" transform="translate(14.028 -250.67)"/><path transform="translate(81.582 23.65)" d="M312.09 2.344l-49.844 4.312 13.531 13.312 57.75-5-21.438-12.625z" color="#000" fill="url(#u)"/><path transform="translate(81.582 23.65)" d="M265.25 6.219l-13.5 1.219c-2.355 2.327-2.472 6.384-1.313 11.25l22.125 15.25 4.375-3 .25-6.25 10.125.25.125-5.625-2.656-1.813-19.53-11.28z" fill="url(#v)"/><path transform="translate(81.582 23.65)" d="M319.28 1.344l-11.312 1.031 31 17.812 2.344.031.062 1.344 4.875 2.813-.656-8.75-.406-.188c-5.492-4.645-12.532-8.772-17.438-11.406-2.69-1.981-4.493-2.615-7.031-2.687a50.28 50.28 0 0 0-1.438 0z" fill="url(#w)"/><path d="M428.168 43.5l.818 9.325-5.138-2.969-.453-6.25-10.452.25-.227-4.375.065-.03 9.864-.162c2.744.52 5.522-1.253 5.522 4.211zM354.288 48.19l-.137 9.294.094.062 4.375-3 .25-6.25 10.125-.425.125-4.95-.063.22-9.468-.162c-2.634.52-5.564.346-5.301 5.211z" fill="#e6e6e6"/><path transform="translate(81.582 23.65)" d="M310.19 121.31c-1.547 3.765-5.389 11.118-4.656 15.812l123.31-10.375c6.679-5.833-3.785-16.848-6.375-21.219-33.797-14.167-102.78-5.301-112.28 15.781z" color="#000" fill="url(#x)" filter="url(#y)"/><path d="M481.43 421.59a5.322 5.322 0 1 1-10.644 0 5.322 5.322 0 0 1 10.644 0z" color="#000" fill="url(#z)" stroke="#000" stroke-linecap="round" stroke-linejoin="round" stroke-width="2" transform="translate(14.028 -250.67)"/><path d="M352.94 436.78a4.8 4.8 0 1 1-9.599 0 4.8 4.8 0 0 1 9.599 0z" color="#000" fill="url(#A)" stroke="#000" stroke-linecap="round" stroke-linejoin="round" stroke-width="2" transform="translate(14.028 -250.67)"/><path transform="matrix(1.0637 0 0 1.0483 70.21 11.95)" d="M176.78 208.31c-5.804 1.435-14.467 5.199-30.031 6.063-18.313 3.118-42.864-10.421-38.774 14.364 11.131 9.487 51.608 4.255 68.805-2.177z" color="#000" fill="url(#B)" filter="url(#C)"/><path transform="matrix(.96851 0 0 1 84.968 23.65)" d="M109.53 216.09l-.219 10.094c21.57 6.105 50.67 4.81 69.005-7.78.074-4.642 2.895-9.429-1.13-10.06-19.62 14.546-54.213 11.435-67.657 7.747z" color="#000" fill="url(#D)" filter="url(#E)"/><path d="M468.84 349.64c.414.843.831 1.684 1.219 2.531-.002.01.002.021 0 .031.228.5.468 1 .687 1.5.201.459.4.917.594 1.375.157.374.317.752.469 1.125.24.589.46 1.193.687 1.782.731 1.899 1.402 3.796 2 5.687.01.031.022.063.031.094.492.195.94.395 1.5.594 4.827 1.5 10.46 2.957 16.625 4.25 20.563 4.311 24.238 5.638 34.875.937 3.24-1.431 6.178-4.03 6.939-8.045 0 0 .125-2.868-3.604-2.335-4.844.664-12.104-.079-17.897-.057-20.406-1.273-34.402-4.887-43.281-9.125.093.161-.308-.039-.844-.344z" color="#000" fill="url(#F)" filter="url(#G)" opacity=".556" transform="translate(14.028 -250.67)"/><g color="#000"><path d="M467.59 342.14c.414.843.831 1.684 1.219 2.531-.002.01.002.021 0 .031.228.5.468 1 .687 1.5.201.459.4.917.594 1.375.157.374.317.752.469 1.125.24.589.46 1.193.687 1.782.731 1.899 1.402 3.796 2 5.687.01.031.022.063.031.094.492.195.94.395 1.5.594 4.827 1.5 10.46 2.957 16.625 4.25 20.563 4.311 39.093 5.113 41.375 1.812.28-.403 1.467-.638 2.147-3.896.68-3.259.853-9.541.853-9.541s-.74-.642-.78-1.594c-.025-.03-.038-.063-.063-.094.225 5.879-13.548 3.777-23.22 3.813-20.405-1.273-34.401-4.887-43.28-9.125.093.161-.309-.039-.844-.344z" fill="url(#H)" transform="translate(14.028 -250.67)"/><path d="M459.59 319.14c-1.222.034-2.148 2.782-2.781 5.688a94.704 94.704 0 0 1 6.281 9.093 102.55 102.55 0 0 1 2.781 4.844c.014.018.018.044.031.063.976 1.272 1.88 2.528 2.532 3.656 8.878 4.242 22.853 7.851 43.28 9.125 10.11-.037 24.73 2.267 23.126-4.656.702-6.688.804-10.051.062-13.406-.22.106-.777-1.06-1.031-.97.76.822.973 1.58.531 2.22-2.282 3.301-20.812 2.499-41.375-1.813s-33.094-13.78-33.094-13.78a.89.89 0 0 0-.344-.063z" fill="url(#I)" transform="translate(14.028 -250.67)"/><path d="M534.39 334.81c-2.282 3.301-20.802 2.482-41.365-1.83s-35.382-10.484-33.1-13.785c2.282-3.301 20.802-2.482 41.365 1.83 20.563 4.312 35.382 10.484 33.1 13.785z" fill="url(#J)" stroke="url(#K)" stroke-width=".912" transform="translate(14.028 -250.67)"/></g><path d="M467.03 340.57c.294.572.593 1.144.875 1.719 6.085 2.85 17.31 6.22 28.722 8.23 20.54 3.614 36.762 3.164 38.688-1 .227-.493-.21-.394-.438-.938-2.393 3.985-17.938 3.714-38.156.156-10.778-1.897-22.628-5.212-29.69-8.167z" color="#000" fill="#666" stroke="url(#L)" stroke-linecap="round" stroke-linejoin="round" stroke-width=".5" transform="translate(14.028 -250.67)"/><path transform="translate(81.582 23.65)" d="M33.781 130.12a.982.982 0 0 0-.125.406c-22.085 47.646-13.875 86.156-13.875 86.156l1.719 167.47s15.598 35.82 19.812 40.47c15.763 17.385 31.035 35.143 64.688 39.28v-258.62c-3.737-38.083-44.007-44.797-66.094-69.156-1.42-1.565-3.647-3.285-6.125-6z" color="#000" fill="url(#M)" filter="url(#N)"/><path transform="translate(81.582 23.65)" d="M186.06 88.594c-.188.007-.378.003-.563.031l-121.44 19.281c-1.494.207-2.746 1.148-3.03 2.281-.286 1.134.43 2.39 1.718 3l23.051 15.274c.8.385 1.788.507 2.719.375l127.29-20.399c1.494-.207 2.746-1.148 3.031-2.28.285-1.134-.43-2.39-1.719-3L188.211 89.03c-.64-.31-1.397-.456-2.156-.437z" color="#000" fill="url(#O)"/><g stroke="#333" stroke-linecap="round" stroke-linejoin="round" color="#000"><path transform="matrix(1.69142 .10691 -.05216 .82512 -641.776 -214.154)" d="M533.63 409.35c0 5.698-4.62 10.318-10.318 10.318-5.698 0-10.318-4.62-10.318-10.318 0-5.698 4.62-10.318 10.318-10.318 5.698 0 10.318 4.62 10.318 10.318z" fill="url(#P)" opacity=".31" stroke-width="2.534"/><path d="M523.59 396.17c-7.225 0-13.081 5.857-13.081 13.081 0 7.225 5.857 13.081 13.081 13.081 7.225 0 13.081-5.857 13.081-13.081 0-7.225-5.857-13.081-13.081-13.081z" fill="url(#Q)" filter="url(#R)" opacity=".31" stroke-width="2.66" transform="matrix(1.6118 .10188 -.0497 .78628 -601.262 -196.332)"/><path d="M510.53 409.22v.031c0 7.225 5.87 13.094 13.094 13.094 7.067 0 12.783-5.618 13.031-12.625-2.976.135-6.027.25-9.156.25a193.2 193.2 0 0 1-16.97-.75z" fill="url(#S)" filter="url(#T)" opacity=".31" stroke-width="2.66" transform="matrix(1.6118 .10188 -.0497 .78628 -601.262 -196.332)"/></g><path d="M263.208 115.3c-.17.006-.338.023-.505.048l-109.73 17.409c-1.35.187-2.494 1.048-2.751 2.072-.258 1.024.387 2.144 1.552 2.696l18.213 12.84c.723.348 1.62.479 2.461.36l117.64-17.485c1.35-.187 2.494-1.049 2.751-2.072.258-1.024-.387-2.145-1.552-2.697l-26.119-12.764a4.307 4.307 0 0 0-1.956-.407z" color="#000" fill="#1a1a1a"/><path d="M205.09 413.51c-17.12-.233-30.876 5.957-31.416 14.506-.198 3.135 1.42 6.158 4.371 8.851.014.013.04.014.055.027a25.432 25.432 0 0 0 3.742 2.787 35.31 35.31 0 0 0 3.333 1.83c.026.013.056.015.082.028.383.182.777.372 1.175.546.026.012.055.016.082.027.4.174.815.353 1.229.52.02.007.035.019.054.027.865.345 1.754.675 2.678.983.02.007.035.02.054.027.926.308 1.89.58 2.869.847.02.005.035.022.054.028.981.266 1.976.514 3.005.737.029.006.054.021.082.027 1.024.221 2.076.4 3.142.574a68.68 68.68 0 0 0 6.884.792c7.001.443 13.523-.199 19.014-1.639.395-.103.79-.216 1.175-.328.063-.018.128-.035.191-.054.313-.092.624-.176.929-.273.13-.042.254-.094.382-.137.424-.141.85-.285 1.257-.437.279-.103.548-.193.82-.3.13-.053.254-.111.382-.164.26-.108.512-.217.765-.328.133-.06.252-.131.382-.191.382-.176.758-.334 1.12-.52.214-.108.422-.215.629-.327.141-.078.271-.168.41-.246.196-.111.384-.214.573-.328.14-.084.275-.16.41-.246.045-.028.092-.053.137-.082.258-.166.493-.347.737-.519.017-.012.038-.015.055-.027.154-.108.289-.217.437-.328.137-.103.278-.196.41-.3.138-.11.277-.217.41-.328.135-.115.252-.239.382-.355.206-.186.41-.356.601-.547l.137-.136c.096-.099.18-.202.273-.3.215-.232.41-.473.6-.711a11.491 11.491 0 0 0 1.012-1.475c.14-.248.266-.512.382-.765.12-.264.234-.522.328-.793a8.399 8.399 0 0 0 .382-1.611c.028-.2.07-.399.082-.601.577-9.12-14.117-17.477-32.81-18.66a69.915 69.915 0 0 0-3.47-.109z" color="#000" fill="url(#U)" filter="url(#V)" transform="translate(14.028 -250.67)"/><path transform="translate(81.582 17.47)" d="M138.31 152.5c-11.786-.137-21.253 2.874-21.405 6.148-.152 3.274-.203 4.117-.22 4.352-.397 5.341 9.694 10.245 22.562 10.938 12.868.692 23.634-3.065 24.03-8.406.034-.449-.19-1.611.015-4.83s-9.74-7.416-22.608-8.108a56.314 56.314 0 0 0-2.375-.093z" color="#000" fill="url(#W)"/><g color="#000"><path d="M545.38 412.9c0 7.503-6.026 13.585-13.459 13.585s-13.459-6.082-13.459-13.585c0-7.503 6.026-13.585 13.459-13.585s13.459 6.082 13.459 13.585z" fill="url(#X)" transform="translate(14.028 -250.67)"/><path d="M542.65 412.9c0-5.98-4.803-10.828-10.727-10.828-5.925 0-10.727 4.848-10.727 10.828 0 5.98 4.803 10.828 10.727 10.828s10.727-4.848 10.727-10.828z" fill="url(#Y)" transform="translate(14.028 -250.67)"/><path d="M230.83 429.16c-.397 5.341-11.15 9.11-24.018 8.418-12.868-.692-22.978-5.583-22.581-10.924.397-5.341 11.15-9.11 24.018-8.418 12.868.692 22.978 5.583 22.581 10.924z" fill="url(#Z)" transform="translate(14.028 -250.67)"/></g><path d="M505.62 463c-3.815.018-7.902.094-12.469.094-81.265 0-150.03 68.303-150.03 149.47 0 38.044 11.59 70.348 34.781 96.78.039.045.086.081.125.126 22.22 20.375 36.755 32.864 47.188 40.938.146.104.29.208.438.312 7.575 5.365 15.28 10.41 21.5 14.094 3.704 1.931 7.356 3.646 11.561 5.75.744.162 1.21.111 1.313-.219l-.094-.062c-.997-.618-1.989-1.237-2.969-1.875-.541-.353-1.088-.703-1.625-1.063-1.004-.672-1.984-1.368-2.968-2.062a149.118 149.118 0 0 1-7.25-5.437 146.8 146.8 0 0 1-3.5-2.907 145.431 145.431 0 0 1-3.031-2.656c-.253-.227-.5-.458-.75-.687-.893-.817-1.787-1.632-2.657-2.47-.127-.122-.248-.25-.375-.374a142.116 142.116 0 0 1-3-3c-1.002-1.032-2-2.065-2.969-3.125-.1-.11-.181-.235-.28-.344a141.13 141.13 0 0 1-5.626-6.594 139.909 139.909 0 0 1-2.687-3.437c-.239-.317-.452-.65-.688-.969-.416-.564-.842-1.117-1.25-1.687-.658-.921-1.301-1.845-1.937-2.782-.262-.385-.524-.768-.781-1.156-.434-.652-.86-1.308-1.282-1.969-.504-.788-1.01-1.575-1.5-2.375-.155-.253-.284-.526-.437-.78-.576-.956-1.166-1.906-1.719-2.876-.27-.473-.517-.96-.781-1.437a138.764 138.764 0 0 1-1.594-2.938 137.845 137.845 0 0 1-3.594-7.406c-.35-.777-.695-1.558-1.031-2.344-.28-.656-.573-1.307-.844-1.969-.274-.669-.517-1.356-.781-2.03-.358-.917-.723-1.825-1.063-2.75-.51-1.395-1-2.803-1.468-4.22-.11-.33-.206-.668-.313-1-.316-.978-.642-1.948-.937-2.937-.203-.679-.37-1.379-.563-2.063-.272-.964-.56-1.932-.812-2.906a142.613 142.613 0 0 1-1.094-4.5 144.415 144.415 0 0 1-.875-4.062c-.024-.124-.039-.251-.063-.375a147.05 147.05 0 0 1-2.156-15.844c-.088-1.058-.183-2.121-.25-3.188-.023-.372-.042-.751-.062-1.125-.158-2.861-.25-5.738-.25-8.656 0-1.268.029-2.52.062-3.781.067-2.523.178-5.036.375-7.531.099-1.248.213-2.51.344-3.75.262-2.48.612-4.93 1-7.375a145.415 145.415 0 0 1 7.5-28.406 147.892 147.892 0 0 1 4.219-10.062c23.908-51.715 76.852-88.562 136.53-88.562 1.676 0 3.315.036 4.937.094 1.566.055 3.105.142 4.625.25.052.004.105-.004.156 0 1.179.085 2.347.196 3.5.312.947.095 1.882.197 2.813.313.753.093 1.507.174 2.25.28.917.133 1.816.318 2.719.47.155.026.314.035.469.062.072.013.146.019.218.031.944.165 1.883.345 2.813.531.66.133 1.314.295 1.969.438.974.213 1.944.42 2.906.656 1.226.302 2.449.598 3.656.938.063.018.124.044.187.062.2.057.395.13.594.188 1.012.292 2.03.587 3.031.906.063.02.126.043.188.062 1.013.325 2.028.65 3.031 1l.531.188c1.175.417 2.335.86 3.5 1.312.126.05.25.108.375.157 1.214.475 2.42.955 3.625 1.469.013.005.019.025.032.03 2.443 1.04 4.879 2.155 7.312 3.345a203.698 203.698 0 0 1 7.313 3.781c1.77.962 3.551 1.935 5.343 2.969.107.06.207.125.313.187a453.111 453.111 0 0 0-24.344-18.938c-9.536-6.34-19.07-12.5-24.97-16.594a599.104 599.104 0 0 0-5.78-3.969 543.79 543.79 0 0 0-17.594-10.375c-.27-.12-.543-.258-.813-.375-11.09-4.75-19.98-5.24-31.43-5.19zm-59.312 287.59c.251.31.495.63.75.937.296.359.605.709.906 1.063.51.599 1.008 1.194 1.531 1.781.24.271.476.544.72.813.385.423.794.832 1.187 1.25.196.209.395.417.593.625.427.446.846.904 1.282 1.343a81.465 81.465 0 0 0-6.97-7.812z" color="#000" fill="url(#aa)" transform="translate(14.028 -250.67)"/><path d="M479.88 445.84c-3.815.018-7.902.094-12.469.094-81.265 0-150.03 68.303-150.03 149.47 0 28.195 6.387 53.226 19.125 75.062.327.335.637.67.969 1a4279.992 4279.992 0 0 0 23.125 21.688c-18.02-24.525-27.031-53.59-27.031-87.125 0-81.166 68.766-149.47 150.03-149.47 4.566 0 8.653-.076 12.469-.094 10.73-.05 19.21.38 29.375 4.375a613.932 613.932 0 0 0-27.125-13.781c-5.906-1.093-11.737-1.25-18.438-1.219zm105.5 57.875c2.814 2.315 5.628 4.34 6.188 3.594a.77.77 0 0 0 .156-.469 173.226 173.226 0 0 0-6.344-3.125zM420.5 733.375a104.867 104.867 0 0 0 7.156 8c-1.847-2.375-4.174-5.056-7.156-8z" color="#000" fill="url(#ab)" opacity=".679" transform="translate(14.028 -250.67)"/><path d="M479.87 445.84c-3.815.018-7.902.094-12.469.094-81.265 0-150.03 68.303-150.03 149.47 0 28.195 6.387 53.226 19.125 75.062.327.335.637.67.969 1a4279.992 4279.992 0 0 0 23.125 21.688c-18.02-24.525-27.031-53.59-27.031-87.125 0-81.166 68.766-149.47 150.03-149.47 4.566 0 8.653-.076 12.469-.094 10.73-.05 19.21.38 29.375 4.375a613.932 613.932 0 0 0-27.125-13.781c-5.906-1.093-11.737-1.25-18.438-1.219zm105.5 57.875c2.814 2.315 5.628 4.34 6.188 3.594a.772.772 0 0 0 .156-.469 173.385 173.385 0 0 0-6.344-3.125zM420.5 733.375a104.867 104.867 0 0 0 7.156 8c-1.847-2.375-4.174-5.056-7.156-8z" color="#000" fill="url(#ac)" opacity=".642" transform="translate(14.028 -250.67)"/><path d="M117.04 403.69c0 5.247-4.477 9.5-10 9.5s-10-4.253-10-9.5 4.477-9.5 10-9.5 10 4.253 10 9.5z" color="#000" fill="url(#ad)" filter="url(#ae)" opacity=".362" transform="translate(14.028 -250.67)"/><path transform="matrix(-.6125 0 0 .6125 170.168 52.44)" d="M92 163c0 5.247-4.477 9.5-10 9.5s-10-4.253-10-9.5 4.477-9.5 10-9.5 10 4.253 10 9.5z" color="#000" fill="url(#af)" filter="url(#ag)" opacity=".862"/><path d="M90.521 660.26c1.712 0 3.1-2.935 3.1-6.555s-1.388-6.554-3.1-6.554-3.1 2.934-3.1 6.554 1.388 6.555 3.1 6.555z" color="#000" fill="url(#ah)" transform="translate(14.028 -250.67)"/><g color="#000" opacity=".321" transform="translate(-962.232 248.63)" fill="url(#ai)" stroke="#000" stroke-linecap="round" stroke-linejoin="round" stroke-width=".7"><path d="M1360.27 13.11a158.961 158.961 0 0 0-3.625 4.25l54.875 38.531.469-2.594 3.844-1.156-55.562-39.031zM1335.62 179.11a108.9 108.9 0 0 0 8.563 12.812l49.905 35.062c.727.235 1.458.437 2.188.656v-.656l-2.563-1.406a139.33 139.33 0 0 1-2.937-4.938l.156-2.687-55.312-38.844zM1327.3 161.01a118.133 118.133 0 0 0 3.938 9.625l54.938 38.594.187-1.188-2.812-2.125c-.61-1.447-1.188-2.9-1.75-4.375l.437-1.937-54.938-38.594zM1342.52 37.26a166.066 166.066 0 0 0-2.813 4.844l53.031 37.25 5.094-2.719v-.5L1342.52 37.26zM1347.93 28.86c-.043.062-.083.126-.125.187a163.721 163.721 0 0 0-2.844 4.282c-.04.063-.084.124-.125.187l53.188 37.344v-.344l5.594-2.562-55.688-39.094zM1322.87 145.7c.62 2.804 1.355 5.585 2.156 8.313l53.406 37.53 1.063-3.5-2.813-2.78c-.176-.707-.336-1.418-.5-2.126L1322.87 145.7zM1448.4-34.99c-1.282.157-2.563.302-3.844.5-.042.006-.083.025-.125.031-1.093.17-2.19.362-3.281.563-.23.041-.459.081-.688.125l57.282 40.25 3-2.657 4.968 1.438-57.312-40.25zM1320.58 131.86c.111 1.002.247 2.006.375 3 .035.269.058.544.094.812.046.334.107.668.156 1 .132.922.25 1.834.406 2.75 0 .002.031-.002.031 0l55.344 38.875.22-.562c-2.235-2.379-4.023-5.107-2.657-7.969l-53.97-37.906zM1422.27-28.92c-2.127.735-4.24 1.56-6.344 2.406l58.656 41.188 3.625-4.281-55.938-39.312zM1462.3-35.89c-2.362.007-4.726.098-7.094.25l55.188 38.781 1.844-1.438 6.25 2.25 1.406-.968-55.312-38.844c-.757-.013-1.523-.034-2.281-.031zM1321.3 95.7c-.31 2.102-.565 4.188-.781 6.281l52.938 37.188 2.562-3.25-1.187-2.625L1321.3 95.7zM1391.55-13.83a149.066 149.066 0 0 0-4.937 3.344l57.812 40.625 2.625-4.969-55.5-39zM1353.87 20.79a161.214 161.214 0 0 0-3.375 4.469l54.031 37.969.156-1.563 4.813-1.78-55.625-39.095zM1323.3 84.89a151.004 151.004 0 0 0-1.219 5.969l53.188 37.375 2.469-2.719-1.187-3.219-53.25-37.406zM1411.18-24.49c-1.947.87-3.893 1.754-5.813 2.719l58.626 41.188 3.28-4.5-56.093-39.406zM1319.77 119.04c.04 2.371.153 4.72.313 7.062l52.843 37.125c-.563-2.326.497-3.605 1.688-5.656zM1374.74-1.21a155.588 155.588 0 0 0-4.25 3.844l56.5 39.688 1.469-4.281 1.75-.282-55.47-38.969zM1337.58 46.01a163.269 163.269 0 0 0-2.531 5.062l53.156 37.344 4.125-2.562-.063-1.406-54.688-38.438zM1320.08 107.04a142.926 142.926 0 0 0-.281 6.625l52.469 36.875 2.844-4.188-.563-1.03-54.469-38.282zM1434.58-32.49a130.077 130.077 0 0 0-7.063 1.875l58.312 40.969 3.563-3.688 1.344.282-56.156-39.438zM1367.24 5.76a158.323 158.323 0 0 0-3.938 4.062l55.72 39.125.937-3.53 2.813-.657-55.531-39zM1400.93-19.46c-1.788.978-3.555 2.033-5.313 3.094l58.313 40.969 2.968-4.75-55.969-39.312zM1349.71 202.79l7.219 10.312 70.312 49.375c-.805-.624-1.617-1.236-2.406-1.875-.594-.48-1.165-.981-1.75-1.469-.38-.317-.75-.648-1.125-.969-.89-.756-1.787-1.504-2.657-2.28-.072-.065-.147-.124-.218-.188-.9-.808-1.778-1.64-2.657-2.47l-.156-.624-.75-.25a141.29 141.29 0 0 1-6.344-6.469l-.218-1.406-1.625-.656c-.75-.852-1.49-1.693-2.22-2.563-.085-.102-.164-.21-.25-.312-.633-.76-1.258-1.541-1.874-2.313-17.761-11.582-35.414-24.464-53.281-35.844zM1329.3 64.64a157.513 157.513 0 0 0-1.906 5.469l53.312 37.469 2.812-2.344-.593-2.906L1329.3 64.64zM1382.83-7.74c-.26.196-.522.396-.781.594-.237.18-.481.352-.719.531-.023.018-.04.045-.063.062-.01.011-.02.023-.03.032-.048.036-.11.057-.157.093-.16.12-.311.252-.469.375-.8.625-1.585 1.262-2.375 1.907l57.22 40.219 2.093-4.844.656-.063L1382.83-7.74zM1333.18 55.14c-.347.778-.693 1.562-1.031 2.344-.149.344-.292.687-.438 1.031-.153.365-.319.729-.468 1.094-.108.26-.208.522-.313.781l53.281 37.438 3.344-2.437-.281-2.22-54.094-38.03zM1325.99 74.54a154.658 154.658 0 0 0-1.594 5.719l53.312 37.438 2.531-2.406-.937-3.282-53.312-37.469zM1472.87-35.42L1523.808.361l.094-.063 6.062 2.657 3.5-1.25-52.656-36.75c-4.104-.867-3.763.009-7.937-.375zM1489.12-33.67a14052.181 14052.181 0 0 0 72.781 50.969l3.312.156 2.25-1-70.406-49.75c-4.103-.866-3.763.01-7.937-.375z" style="block-progression:tb;text-indent:0;text-transform:none"/><path d="M1508.38-31.19l3 .375-3-.375zm-.5.125l63.125 44.5-63.125-44.5z"/></g><path d="M567.52 535.25c-44.371.127-90.259 27.451-115.67 73.438-34.602 62.62-18.105 136.18 36.87 164.29s127.61.117 162.21-62.504c34.602-62.62 18.075-136.18-36.9-164.29-14.603-7.467-30.46-10.98-46.509-10.934zm-10.844 23.013c12.538-.035 24.919 2.663 36.327 8.434 42.948 21.725 55.86 78.57 28.827 126.97-27.033 48.397-83.776 70.041-126.72 48.316-42.948-21.725-55.83-78.569-28.797-126.97 19.852-35.54 55.702-56.652 90.367-56.75z" color="#000" fill="url(#aj)" transform="translate(14.028 -250.67)"/><path d="M573.448 307.59c-.464.001-.921.022-1.386.03 12.078.156 23.972 2.84 34.972 8.404 42.948 21.725 55.86 78.57 28.827 126.97-27.033 48.397-83.776 70.041-126.72 48.316-27.505-13.913-42.663-42.25-42.924-73.528-.502 32.886 15.145 62.911 44.07 77.475 44.074 22.192 102.3.097 130.04-49.34 27.741-49.437 14.494-107.51-29.58-129.71-11.708-5.895-24.425-8.651-37.292-8.615z" color="#000" fill="#111"/><path transform="translate(37.781 -223.013) scale(.96391)" d="M564.12 526.59c-3.324.01-6.636.2-9.969.5 18.584-1.221 37.098 2.172 53.97 10.844 55.585 28.571 72.268 103.35 37.28 167-34.987 63.647-108.41 92.071-164 63.5-42.558-21.875-62.307-70.817-53.53-121.12-10.013 52.14 10.191 103.25 54.5 125.91 57.032 29.162 132.38.12 168.28-64.844 35.897-64.965 18.75-141.28-38.282-170.44-15.149-7.746-31.6-11.391-48.25-11.344z" color="#000" fill="url(#ak)" filter="url(#al)"/><path d="M621.83 693.67c-27.033 48.397-83.764 70.018-126.71 48.293-42.948-21.725-55.851-78.57-28.818-126.97 27.033-48.397 83.764-70.018 126.71-48.293 42.948 21.725 55.851 78.57 28.818 126.97z" color="#000" fill="url(#am)" transform="translate(14.028 -250.67)"/><path transform="translate(37.781 -223.013) scale(.96391)" d="M532.78 556.94c-7.061.02-14.174 1.041-21.156 3.031-21.001 9.777-39.87 26.764-52.5 49.375-11.481 20.554-16.041 42.58-14.344 62.97 4.727 19.57 16.656 36.25 34.812 45.561 37.111 19.033 86.11.087 109.47-42.312 23.359-42.399 12.236-92.186-24.875-111.22-9.858-5.055-20.572-7.437-31.406-7.406z" color="#000" fill="url(#an)" filter="url(#ao)" opacity=".418"/><path d="M581.91 670.22c-16.787 29.662-52.017 42.914-78.688 29.599s-34.683-48.155-17.896-77.817 52.017-42.914 78.688-29.599 34.683 48.155 17.896 77.817z" color="#000" fill="url(#ap)" opacity=".754" stroke="url(#radialGradient4377)" stroke-width="1.928" transform="translate(14.028 -250.67)"/><path transform="translate(37.781 -223.013) scale(.96391)" d="M548.97 552.38c-.55.002-1.106.019-1.656.031 11.183.264 22.214 2.916 32.406 8.188 40.77 21.089 53.005 76.27 27.344 123.25-25.662 46.979-79.511 67.964-120.28 46.875-25.85-13.371-40.224-40.47-40.75-70.47-.38 31.974 14.61 61.114 42.28 75.282 42.305 21.66 98.186.094 124.81-48.156 26.628-48.251 13.93-104.9-28.374-126.56-11.237-5.754-23.431-8.473-35.781-8.438z" color="#000" fill="url(#aq)" filter="url(#ar)" opacity=".276"/><path d="M555.54 657.05c-7.622 13.467-23.617 19.484-35.727 13.439-12.109-6.045-15.747-21.864-8.125-35.331 7.622-13.467 23.617-19.484 35.727-13.439 12.109 6.045 15.747 21.864 8.125 35.331z" color="#000" fill="url(#as)" transform="translate(14.028 -250.67)"/><path d="M558.64 555.87c-36.077.102-73.389 21.949-94.05 58.732-28.135 50.087-14.728 108.91 29.971 131.4 44.699 22.484 103.75.084 131.89-50.003 28.134-50.087 14.697-108.91-30.002-131.4-11.873-5.972-24.759-8.765-37.808-8.729zm-.314 2.494c12.722-.036 25.292 2.688 36.868 8.51 43.579 21.92 56.648 79.295 29.219 128.13-27.43 48.83-84.988 70.645-128.57 48.725-43.578-21.92-56.678-79.295-29.25-128.13 20.143-35.86 56.558-57.136 91.73-57.235z" color="#000" fill="url(#at)" transform="translate(14.028 -250.67)"/><path transform="translate(37.781 -223.013) scale(.96391)" d="M551.7 652.96c-7.907 13.972-24.501 20.213-37.064 13.942-12.563-6.272-16.337-22.682-8.43-36.654 7.908-13.972 24.502-20.213 37.065-13.942 12.563 6.272 16.337 22.682 8.429 36.654z" color="#000" fill="url(#au)" filter="url(#av)" opacity=".138"/><g color="#000"><path d="M567.88 532.48c-45.354.13-92.247 28.075-118.22 75.081-35.369 64.008-18.504 139.18 37.689 167.91 56.193 28.733 130.41.127 165.78-63.881 35.369-64.008 18.474-139.18-37.718-167.91-14.926-7.632-31.121-11.247-47.526-11.2zm-.622 4.8c15.786-.045 31.384 3.41 45.748 10.755 54.075 27.65 70.332 100 36.296 161.6-34.036 61.596-105.48 89.131-159.55 61.481-54.075-27.65-70.302-100-36.266-161.6 24.995-45.234 70.132-72.112 113.78-72.236z" fill="url(#aw)" filter="url(#ax)" transform="translate(14.028 -250.67)"/><path d="M183.3 410.78c0 3.247-4.572 5.88-10.213 5.88-5.64 0-10.213-2.633-10.213-5.88s4.572-5.88 10.213-5.88c5.64 0 10.213 2.633 10.213 5.88z" fill="url(#ay)" transform="translate(14.028 -250.67)"/><path d="M180.11 410.27c0-2.512-3.537-4.548-7.9-4.548s-7.9 2.036-7.9 4.548 3.537 4.548 7.9 4.548 7.9-2.036 7.9-4.548z" fill="url(#az)" transform="translate(14.028 -250.67)"/><path d="M180.11 409.62c0-2.154-3.537-3.9-7.9-3.9s-7.9 1.746-7.9 3.9 3.537 3.9 7.9 3.9 7.9-1.746 7.9-3.9z" fill="url(#aA)" transform="translate(14.028 -250.67)"/></g><path d="M172.46 406.41c-.155.004-.31.015-.461.022-.067.002-.132-.003-.198 0-.06.004-.116.018-.176.022a17.1 17.1 0 0 0-.747.066c-.042.005-.09.017-.131.022-1.464.248-2.673.837-3.361 1.604.219.833 2.613 1.493 5.535 1.493 2.045 0 3.803-.334 4.767-.813-.59-1.362-2.696-2.375-5.228-2.416z" color="#000" fill="url(#aB)" transform="translate(14.028 -250.67)"/><g color="#000"><path d="M219.05 404.56c0 3.128-4.404 5.664-9.838 5.664-5.433 0-9.837-2.536-9.837-5.664s4.404-5.664 9.837-5.664c5.434 0 9.838 2.536 9.838 5.664z" fill="url(#aC)" transform="translate(14.028 -250.67)"/><path d="M217.11 404.27c0-2.512-3.537-4.548-7.9-4.548s-7.9 2.036-7.9 4.548 3.537 4.548 7.9 4.548 7.9-2.036 7.9-4.548z" fill="url(#aD)" transform="translate(14.028 -250.67)"/><path d="M217.11 403.76c0-2.23-3.537-4.037-7.9-4.037s-7.9 1.808-7.9 4.037c0 2.23 3.537 4.037 7.9 4.037s7.9-1.808 7.9-4.037z" fill="url(#aE)" transform="translate(14.028 -250.67)"/><path d="M223.238 149.6c-2.564 0-4.745.93-5.584 2.238.83.646 3.008 1.108 5.584 1.108 2.576 0 4.754-.462 5.584-1.108-.839-1.308-3.02-2.238-5.584-2.238z" fill="#b3b3b3"/></g><path d="M541.54 499.6c-80.942 0-149.42 67.783-149.42 148.33 0 53.325 26.98 97.465 69.904 122.9 21.479 12.728 44.036 20.858 70.438 17.646-18.269.525-36.374-3.171-52.976-11.63-59.03-30.08-76.75-108.75-39.59-175.75 27.286-49.199 76.548-78.449 124.19-78.585 17.233-.05 34.246 3.734 49.926 11.723 10.296 5.245 19.336 11.965 27.048 19.848-3.362-7.343-9.847-11.907-15.211-17.797-5.246-5.76-9.327-12.883-16.483-16.996-21.538-12.379-41.17-19.695-67.829-19.695z" color="#000" fill="url(#aF)" transform="translate(14.028 -250.67)"/><path d="M538.41 509.47c-59.077 1.14-114.19 41.424-134.83 96.526-19.846 50.774-8.073 112.74 31.3 151.07 4.747 2.775 8.882 5.113 3.25-.688-35.983-45.383-39.659-112.84-10.438-162.69 28.209-50.334 86.045-82.969 144.09-77.78 5.627.493 11.276 1.364 16.719 2.656-15.813-6.749-32.889-9.603-50.094-9.094z" color="#000" fill="url(#aG)" filter="url(#aH)" transform="translate(14.028 -250.67)"/><path d="M104.23 391.54c-5.523 0-10 4.253-10 9.5 0 3.099 1.552 5.86 3.969 7.594a9.118 9.118 0 0 1-1.344-4.75c0-5.247 4.477-9.5 10-9.5 2.261 0 4.356.704 6.031 1.906-1.728-2.842-4.953-4.75-8.656-4.75z" color="#000" fill="url(#aI)" filter="url(#aJ)" transform="translate(14.028 -250.67)"/><g><path transform="translate(81.582 23.65)" d="M181.62 91.656c-.17.006-.334.006-.5.031l-68.531 10.875 53 14.188 42.906-7.156c1.35-.187 2.493-1.039 2.75-2.062.257-1.024-.367-2.167-1.531-2.72l-26.125-12.75a4.36 4.36 0 0 0-1.969-.405z" color="#000" fill="url(#aK)"/><path transform="matrix(1 0 0 .89538 13.642 -218.666)" d="M336.05 313.79c.688-13.271 60.056-29.109 85.497-7.95 1.851 1.54 4.681 4.439 4.277 5.82-23.65-2.34-52.654 1.484-78.637 8.317z" fill="url(#aL)" filter="url(#aM)"/><path transform="translate(81.582 23.65)" d="M138.31 143.84c-34.41.671-18.316 16.239.938 17.5 12.334.663 22.747-2.76 23.938-7.75-1.101-4.84-10.636-9.05-22.5-9.688a55.835 55.835 0 0 0-2.376-.062z" color="#000" fill="url(#aN)"/><path d="M204.008 172.93c7.822-3.65 31.404-3.79 39.077 2.657-4.199-11.63-43.056-8.84-39.077-2.657z" color="#000" fill="#999"/><g color="#000"><path d="M487.658 66.08c-3.784-.167-6.997-.108-9.436.22-2.438.328-4.13.842-4.875 1.919-.372.538-.403 1.221-.125 1.824.277.603.81 1.177 1.54 1.761 1.463 1.169 3.759 2.384 6.794 3.649 6.072 2.528 15.012 5.185 25.382 7.36 10.37 2.174 20.203 3.47 27.772 3.805 3.784.168 6.998.077 9.436-.251 2.438-.329 4.13-.842 4.875-1.919.372-.538.403-1.222.126-1.824-.278-.603-.81-1.177-1.541-1.762-1.463-1.168-3.758-2.384-6.794-3.648-6.071-2.529-15.012-5.154-25.382-7.328-10.369-2.175-20.203-3.471-27.772-3.806zm-.063.912c7.5.332 17.32 1.609 27.646 3.774 10.327 2.166 19.207 4.804 25.193 7.297 2.993 1.247 5.27 2.456 6.605 3.523.668.533 1.11 1.025 1.29 1.415.18.39.139.651-.063.944-.404.584-1.897 1.193-4.246 1.51-2.35.316-5.497.385-9.247.22-7.5-.332-17.32-1.61-27.646-3.775-10.327-2.165-19.207-4.804-25.193-7.297-2.993-1.246-5.27-2.456-6.605-3.522-.667-.533-1.11-1.026-1.29-1.415-.179-.39-.139-.62.063-.913.404-.584 1.897-1.225 4.246-1.54 2.35-.317 5.498-.387 9.247-.22z" fill="#e5d5ff" opacity=".927" style="block-progression:tb;text-indent:0;text-transform:none"/><path d="M542.88 586.28c-22.326-.52-45.617 12.707-58.375 35.25-17.011 30.058-8.922 65.576 18.281 79.156s62.958.058 79.969-30c17.011-30.058 8.89-65.576-18.312-79.156l-.063-.031c-6.783-3.374-14.08-5.046-21.5-5.22zm-.094 1.938c7.148.158 14.185 1.775 20.688 5l.125.03c26.14 13.05 34.032 47.235 17.47 76.5-16.564 29.267-51.268 42.269-77.407 29.22s-34.063-47.234-17.5-76.5l.282-.469c12.479-21.656 34.934-34.256 56.344-33.781z" fill="url(#aO)" opacity=".754" style="block-progression:tb;text-indent:0;text-transform:none" transform="translate(14.028 -250.67)"/><path d="M490.118 164.61a6.321 6.321 0 0 0-6.313 6.312 6.321 6.321 0 0 0 6.313 6.313c3.48 0 6.344-2.833 6.344-6.313 0-3.48-2.864-6.312-6.344-6.312zm0 2c2.399 0 4.344 1.914 4.344 4.312 0 2.4-1.945 4.313-4.344 4.313a4.29 4.29 0 0 1-4.313-4.313 4.29 4.29 0 0 1 4.313-4.312zM362.148 180.3c-3.191 0-5.781 2.621-5.781 5.813s2.59 5.812 5.781 5.812 5.813-2.621 5.813-5.812-2.622-5.813-5.813-5.813zm0 2c2.11 0 3.813 1.702 3.813 3.813s-1.703 3.812-3.813 3.812-3.781-1.702-3.781-3.812 1.67-3.813 3.781-3.813z" style="block-progression:tb;text-indent:0;text-transform:none"/></g><path d="M346.728 30.29l-4.188.375 24.156 11.203zM412.678 38.92l5.056-.037-24.156-11.203z" fill="#ccc"/><path d="M545.958 152.35c-3.593 0-6.772 1.794-8.719 4.531 2.36 1.574 5.4 2.531 8.719 2.531 3.318 0 6.327-.957 8.688-2.53-1.948-2.735-5.097-4.532-8.688-4.532z" color="#000" fill="#4d4d4d"/><path d="M218.088 238.85c-12.605 2.888-26.445-6.335-31.897-.36 38.732 9.237 66.278-7.065 66.278-7.065s-18.747 4.476-34.381 7.425z" fill-rule="evenodd"/><path d="M93.466 243.92a.5.5 0 0 0-.375.469v.03a.5.5 0 0 0 0 .032c-.565 50.468.129 90.228 1.219 139.19a.5.5 0 0 0 .219.375c5.994 4.406 11.392 6.637 15.438 6.563 2.022-.037 3.727-.677 4.906-1.938 1.178-1.26 1.781-3.089 1.781-5.437v-105.09c0-4.78-2.497-10.846-6.5-16.906-4.003-6.06-9.516-12.108-15.656-16.75l-.5-.344a.5.5 0 0 0-.094-.094.5.5 0 0 0-.437-.094zm.625 1.469c5.96 4.544 11.354 10.476 15.25 16.375 3.938 5.962 6.313 11.919 6.313 16.344v105.09c0 2.174-.565 3.716-1.532 4.75s-2.36 1.591-4.187 1.625c-3.616.066-8.813-1.986-14.625-6.219-1.08-48.519-1.763-88.069-1.219-137.97z" color="#000" style="block-progression:tb;text-indent:0;text-transform:none"/><path d="M90.521 480.98c1.712 0 3.1 2.935 3.1 6.555s-1.388 6.554-3.1 6.554-3.1-2.934-3.1-6.554 1.388-6.555 3.1-6.555z" color="#000" fill="url(#aP)" transform="translate(14.028 -250.67)"/></g></svg>