<?xml version="1.0" encoding="UTF-8" standalone="no"?>
<svg
   xmlns:dc="http://purl.org/dc/elements/1.1/"
   xmlns:cc="http://creativecommons.org/ns#"
   xmlns:rdf="http://www.w3.org/1999/02/22-rdf-syntax-ns#"
   xmlns:svg="http://www.w3.org/2000/svg"
   xmlns="http://www.w3.org/2000/svg"
   xmlns:sodipodi="http://sodipodi.sourceforge.net/DTD/sodipodi-0.dtd"
   xmlns:inkscape="http://www.inkscape.org/namespaces/inkscape"
   viewBox="0 0 159.89646 116.76745"
   version="1.1"
   id="svg142"
   sodipodi:docname="hand1.svg"
   inkscape:version="1.0.2 (e86c870879, 2021-01-15)"
   width="159.89645"
   height="116.76745">
  <metadata
     id="metadata148">
    <rdf:RDF>
      <cc:Work
         rdf:about="">
        <dc:format>image/svg+xml</dc:format>
        <dc:type
           rdf:resource="http://purl.org/dc/dcmitype/StillImage" />
        <dc:title />
      </cc:Work>
    </rdf:RDF>
  </metadata>
  <defs
     id="defs146" />
  <sodipodi:namedview
     pagecolor="#ffffff"
     bordercolor="#666666"
     borderopacity="1"
     objecttolerance="10"
     gridtolerance="10"
     guidetolerance="10"
     inkscape:pageopacity="0"
     inkscape:pageshadow="2"
     inkscape:window-width="1366"
     inkscape:window-height="695"
     id="namedview144"
     showgrid="false"
     inkscape:zoom="2.2275116"
     inkscape:cx="48.00872"
     inkscape:cy="65.055152"
     inkscape:window-x="0"
     inkscape:window-y="0"
     inkscape:window-maximized="1"
     inkscape:current-layer="g140"
     inkscape:document-rotation="0"
     fit-margin-top="0"
     fit-margin-left="0"
     fit-margin-right="0"
     fit-margin-bottom="0" />
  <g
     fill="none"
     stroke="#000000"
     stroke-width="3"
     id="g140"
     transform="translate(-145.78927,-328.0727)">
    <g
       id="g138"
       style="stroke-width:2;stroke-miterlimit:4;stroke-dasharray:none;fill:none;stroke:none">
      <path
         d="m 224.462,423.763 -19.868,5.421 a 7.943,7.943 0 0 1 -9.775,-9.686 7.943,7.943 0 0 1 5.592,-5.644 l 19.037,-5.194 m 8.794,23.053 -6.174,1.685 a 7.943,7.943 0 0 1 -9.883,-6.111"
         id="path110"
         style="stroke-width:2;stroke-miterlimit:4;stroke-dasharray:none;fill:none;stroke:none" />
      <path
         d="m 212.222,410.633 -23.631,6.448 a 7.943,7.943 0 0 1 -9.775,-9.687 7.943,7.943 0 0 1 5.592,-5.643 l 23.631,-6.448 19.095,-18.966 m 3.218,62.886 a 7.944,7.944 0 0 1 -8.416,-6.366 m -7.584,-83.634 24.494,5.58 m 25.726,52.49 a 8.272,8.272 0 0 1 3.71,-13.842 8.272,8.272 0 0 1 7.99,2.142 l 3.458,3.457 a 8.272,8.272 0 0 1 -3.709,13.842 8.272,8.272 0 0 1 -7.991,-2.141 z"
         id="path112"
         style="stroke-width:2;stroke-miterlimit:4;stroke-dasharray:none;fill:none;stroke:none" />
      <path
         d="m 252.872,418.993 a 8.272,8.272 0 0 1 3.71,-13.842 8.272,8.272 0 0 1 7.99,2.142 l 3.458,3.457 a 8.272,8.272 0 0 1 -3.709,13.842 8.272,8.272 0 0 1 -7.991,-2.141 z m -11.7,11.71 a 8.272,8.272 0 0 1 3.71,-13.842 8.272,8.272 0 0 1 7.99,2.142 l 3.458,3.457 a 8.272,8.272 0 0 1 -3.709,13.842 8.272,8.272 0 0 1 -7.991,-2.141 z"
         id="path114"
         style="stroke-width:2;stroke-miterlimit:4;stroke-dasharray:none;fill:none;stroke:none" />
      <path
         d="m 230.392,438.993 a 6.818,6.818 0 0 1 3.057,-11.408 6.818,6.818 0 0 1 6.587,1.765 l 2.85,2.85 a 6.818,6.818 0 0 1 -3.058,11.408 6.818,6.818 0 0 1 -6.586,-1.765 z m 35.52,-35.51 a 4.6265997,4.6265997 0 1 1 6.543,-6.543 l 1.934,1.934 a 4.6265997,4.6265997 0 1 1 -6.543,6.543 z m -11.7,11.7 a 4.6265997,4.6265997 0 1 1 6.543,-6.543 l 1.934,1.934 a 4.6265997,4.6265997 0 1 1 -6.543,6.543 z m -11.7,11.7 a 4.6265997,4.6265997 0 1 1 6.543,-6.543 l 1.934,1.934 a 4.6265997,4.6265997 0 1 1 -6.543,6.543 z"
         id="path116"
         style="stroke-width:2;stroke-miterlimit:4;stroke-dasharray:none;fill:none;stroke:none" />
      <path
         d="m 231.152,435.493 a 3.8130733,3.8130733 0 1 1 5.393,-5.392 l 1.593,1.593 a 3.8130733,3.8130733 0 1 1 -5.392,5.393 z m -9.45,-64.07 10.875,9.822 a 7.944,7.944 0 0 0 13.094,-4.233 7.943,7.943 0 0 0 -2.443,-7.56 l -10.121,-9.14 c -7.118,-6.428 -18.965,-12.572 -26.095,-12.546"
         id="path118"
         style="stroke-width:2;stroke-miterlimit:4;stroke-dasharray:none;fill:none;stroke:none" />
      <path
         d="m 232.032,359.713 a 7.943,7.943 0 0 0 4.233,13.094 7.943,7.943 0 0 0 7.56,-2.443"
         id="path120"
         style="stroke-width:2;stroke-miterlimit:4;stroke-dasharray:none;fill:none;stroke:none" />
      <g
         paint-order="markers fill stroke"
         transform="translate(-175.808,148.393)"
         id="g134"
         style="stroke-width:2;stroke-miterlimit:4;stroke-dasharray:none;fill:none;stroke:none">
        <rect
           transform="matrix(0.67025825,0.74212794,0.74212794,-0.67025825,0,0)"
           x="427.29001"
           y="170.06"
           width="64.063004"
           height="34.98"
           rx="2.424"
           ry="2.424"
           id="rect122"
           style="stroke-width:2;stroke-miterlimit:4;stroke-dasharray:none;fill:none;stroke:none" />
        <rect
           transform="matrix(0.67025825,0.74212794,0.74212794,-0.67025825,0,0)"
           x="427.29001"
           y="170.06"
           width="64.063004"
           height="34.98"
           rx="2.424"
           ry="2.424"
           id="rect124"
           style="stroke-width:2;stroke-miterlimit:4;stroke-dasharray:none;fill:none;stroke:none" />
        <circle
           transform="matrix(0.67025825,0.74212794,0.74212794,-0.67025825,0,0)"
           cx="481.20999"
           cy="180.2"
           r="6.112"
           id="circle126"
           style="stroke-width:2;stroke-miterlimit:4;stroke-dasharray:none;fill:none;stroke:none" />
        <rect
           transform="rotate(120)"
           x="-21.167"
           y="-431.22"
           width="64.063004"
           height="34.98"
           rx="2.424"
           ry="2.424"
           id="rect128"
           style="stroke-width:2;stroke-miterlimit:4;stroke-dasharray:none;fill:none;stroke:none" />
        <rect
           transform="rotate(120)"
           x="-21.167"
           y="-431.22"
           width="64.063004"
           height="34.98"
           rx="2.424"
           ry="2.424"
           id="rect130"
           style="stroke-width:2;stroke-miterlimit:4;stroke-dasharray:none;fill:none;stroke:none" />
        <circle
           transform="rotate(120)"
           cx="32.757"
           cy="-421.07999"
           r="6.112"
           id="circle132"
           style="stroke-width:2;stroke-miterlimit:4;stroke-dasharray:none;fill:none;stroke:none" />
      </g>
      <path
         d="m 175.822,399.743 7.213,1.89"
         id="path136"
         style="stroke-width:2;stroke-miterlimit:4;stroke-dasharray:none;fill:none;stroke:none" />
    </g>
  </g>
</svg>
