<?xml version="1.0" encoding="UTF-8" standalone="no"?>
<svg
   xmlns:dc="http://purl.org/dc/elements/1.1/"
   xmlns:cc="http://creativecommons.org/ns#"
   xmlns:rdf="http://www.w3.org/1999/02/22-rdf-syntax-ns#"
   xmlns:svg="http://www.w3.org/2000/svg"
   xmlns="http://www.w3.org/2000/svg"
   xmlns:xlink="http://www.w3.org/1999/xlink"
   xmlns:sodipodi="http://sodipodi.sourceforge.net/DTD/sodipodi-0.dtd"
   xmlns:inkscape="http://www.inkscape.org/namespaces/inkscape"
   version="1.1"
   viewBox="0 0 248 248"
   id="svg244"
   sodipodi:docname="logo.svg"
   inkscape:version="1.0.1 (3bc2e813f5, 2020-09-07)">
  <metadata
     id="metadata248">
    <rdf:RDF>
      <cc:Work
         rdf:about="">
        <dc:format>image/svg+xml</dc:format>
        <dc:type
           rdf:resource="http://purl.org/dc/dcmitype/StillImage" />
        <dc:title></dc:title>
      </cc:Work>
    </rdf:RDF>
  </metadata>
  <sodipodi:namedview
     pagecolor="#ffffff"
     bordercolor="#666666"
     borderopacity="1"
     objecttolerance="10"
     gridtolerance="10"
     guidetolerance="10"
     inkscape:pageopacity="0"
     inkscape:pageshadow="2"
     inkscape:window-width="1366"
     inkscape:window-height="703"
     id="namedview246"
     showgrid="false"
     inkscape:zoom="1.46"
     inkscape:cx="92.6"
     inkscape:cy="127"
     inkscape:window-x="0"
     inkscape:window-y="0"
     inkscape:window-maximized="1"
     inkscape:current-layer="svg244" />
  <defs
     id="defs84">
    <linearGradient
       id="a">
      <stop
         stop-color="#0a062b"
         offset="0"
         id="stop2" />
      <stop
         stop-color="#6c6a7d"
         stop-opacity=".49565"
         offset=".34677"
         id="stop4" />
      <stop
         stop-color="#fff"
         stop-opacity=".81739"
         offset=".69355"
         id="stop6" />
      <stop
         stop-color="#fff"
         offset="1"
         id="stop8" />
    </linearGradient>
    <linearGradient
       id="bw"
       x1="397.65"
       x2="431.71"
       y1="520.9"
       y2="520.9"
       gradientTransform="rotate(90,415,521)"
       gradientUnits="userSpaceOnUse"
       xlink:href="#a" />
    <linearGradient
       id="bv"
       x1="298.87"
       x2="397.65"
       y1="470.76"
       y2="536.83"
       gradientUnits="userSpaceOnUse"
       xlink:href="#a" />
    <linearGradient
       id="bu"
       x1="398.42"
       x2="397.31"
       y1="446.51"
       y2="553.82"
       gradientUnits="userSpaceOnUse"
       xlink:href="#a" />
    <linearGradient
       id="bt"
       x1="309.88"
       x2="426.95"
       y1="471.83"
       y2="556.29"
       gradientTransform="rotate(90,400,537)"
       gradientUnits="userSpaceOnUse"
       xlink:href="#a" />
    <linearGradient
       id="bs"
       x1="472.26"
       x2="577.71"
       y1="571.23"
       y2="543.51"
       gradientUnits="userSpaceOnUse"
       xlink:href="#a" />
    <linearGradient
       id="br"
       x1="467.33"
       x2="577.71"
       y1="556.29"
       y2="545.1"
       gradientTransform="rotate(90,574,545)"
       gradientUnits="userSpaceOnUse"
       xlink:href="#a" />
    <linearGradient
       id="bq"
       x1="373.17"
       x2="432.83"
       y1="584.64"
       y2="585.08"
       gradientTransform="rotate(90,411,585)"
       gradientUnits="userSpaceOnUse"
       xlink:href="#a" />
    <linearGradient
       id="bp"
       x1="373.17"
       x2="432.83"
       y1="595.81"
       y2="585.08"
       gradientTransform="rotate(90,411,585)"
       gradientUnits="userSpaceOnUse"
       xlink:href="#a" />
    <linearGradient
       id="bo"
       x1="482.69"
       x2="586.93"
       y1="615"
       y2="467.73"
       gradientTransform="rotate(90,558,527)"
       gradientUnits="userSpaceOnUse"
       xlink:href="#a" />
    <linearGradient
       id="bn"
       x1="359.73"
       x2="411.37"
       y1="555.53"
       y2="552.98"
       gradientUnits="userSpaceOnUse"
       xlink:href="#a" />
    <linearGradient
       id="bm"
       x1="492.09"
       x2="531.98"
       y1="696.14"
       y2="623.36"
       gradientTransform="rotate(90,506,623)"
       gradientUnits="userSpaceOnUse"
       xlink:href="#a" />
    <linearGradient
       id="bl"
       x1="530.88"
       x2="577.72"
       y1="446.51"
       y2="561.48"
       gradientUnits="userSpaceOnUse"
       xlink:href="#a" />
    <linearGradient
       id="bk"
       x1="469.55"
       x2="600.09"
       y1="580.25"
       y2="565.67"
       gradientUnits="userSpaceOnUse"
       xlink:href="#a" />
    <linearGradient
       id="bj"
       x1="332.28"
       x2="464.84"
       y1="516.9"
       y2="552.34"
       gradientTransform="rotate(90,438,552)"
       gradientUnits="userSpaceOnUse"
       xlink:href="#a" />
    <linearGradient
       id="bi"
       x1="372.98"
       x2="429.59"
       y1="551.75"
       y2="552.98"
       gradientUnits="userSpaceOnUse"
       xlink:href="#a" />
    <linearGradient
       id="bh"
       x1="473.55"
       x2="461.87"
       y1="446.51"
       y2="568.81"
       gradientUnits="userSpaceOnUse"
       xlink:href="#a" />
    <linearGradient
       id="bg"
       x1="497.43"
       x2="560.81"
       y1="477.79"
       y2="538.85"
       gradientTransform="matrix(0,-0.608,0.608,0,189,871)"
       gradientUnits="userSpaceOnUse"
       spreadMethod="reflect"
       xlink:href="#a" />
    <linearGradient
       id="bf"
       x1="445.9"
       x2="560.81"
       y1="614.62"
       y2="544.39"
       gradientTransform="rotate(90,544,544)"
       gradientUnits="userSpaceOnUse"
       xlink:href="#a" />
    <linearGradient
       id="be"
       x1="397.02"
       x2="464.84"
       y1="569.37"
       y2="562.71"
       gradientUnits="userSpaceOnUse"
       xlink:href="#a" />
    <linearGradient
       id="bd"
       x1="478.53"
       x2="557.15"
       y1="605.93"
       y2="558.79"
       gradientUnits="userSpaceOnUse"
       xlink:href="#a" />
    <linearGradient
       id="bc"
       x1="488.67"
       x2="536.13"
       y1="573.52"
       y2="562.78"
       gradientTransform="rotate(90,533,591)"
       gradientUnits="userSpaceOnUse"
       xlink:href="#a" />
    <linearGradient
       id="ar"
       x1="385.74"
       x2="526.74"
       y1="600.85"
       y2="556.56"
       gradientTransform="rotate(90,496,557)"
       gradientUnits="userSpaceOnUse"
       xlink:href="#a" />
    <linearGradient
       id="aq"
       x1="496.51"
       x2="536.59"
       y1="446.51"
       y2="571.99"
       gradientUnits="userSpaceOnUse"
       xlink:href="#a" />
    <linearGradient
       id="ap"
       x1="468.07"
       x2="536.59"
       y1="565.45"
       y2="558.79"
       gradientUnits="userSpaceOnUse"
       xlink:href="#a" />
    <linearGradient
       id="ao"
       x1="419.72"
       x2="499.23"
       y1="569.7"
       y2="562.71"
       gradientUnits="userSpaceOnUse"
       xlink:href="#a" />
    <linearGradient
       id="an"
       x1="441.93"
       x2="499.23"
       y1="587.5"
       y2="604.15"
       gradientTransform="rotate(90,481,595)"
       gradientUnits="userSpaceOnUse"
       xlink:href="#a" />
    <linearGradient
       id="ai"
       x1="431.71"
       x2="493.61"
       y1="513.88"
       y2="513.88"
       gradientTransform="rotate(90,463,514)"
       gradientUnits="userSpaceOnUse"
       xlink:href="#a" />
    <linearGradient
       id="ah"
       x1="493.61"
       x2="547.09"
       y1="515.47"
       y2="515.47"
       gradientTransform="rotate(90,520,515)"
       gradientUnits="userSpaceOnUse"
       xlink:href="#a" />
    <linearGradient
       id="ag"
       x1="479.23"
       x2="547.09"
       y1="519.51"
       y2="519.51"
       gradientTransform="matrix(0,-0.608,0.608,0,201,845)"
       gradientUnits="userSpaceOnUse"
       spreadMethod="reflect"
       xlink:href="#a" />
    <linearGradient
       id="af"
       x1="479.23"
       x2="560.81"
       y1="525.78"
       y2="525.78"
       gradientTransform="matrix(0,-0.608,0.608,0,202,858)"
       gradientUnits="userSpaceOnUse"
       spreadMethod="reflect"
       xlink:href="#a" />
    <linearGradient
       id="ba"
       x1="458.39"
       x2="526.74"
       y1="736.13"
       y2="540.63"
       gradientTransform="matrix(0,-0.608,0.608,0,163,849)"
       gradientUnits="userSpaceOnUse"
       spreadMethod="reflect"
       xlink:href="#a" />
    <linearGradient
       id="az"
       x1="369.15"
       x2="526.74"
       y1="689.75"
       y2="540.63"
       gradientTransform="matrix(0,-0.608,0.608,0,163,849)"
       gradientUnits="userSpaceOnUse"
       spreadMethod="reflect"
       xlink:href="#a" />
    <linearGradient
       id="au"
       x1="383.24"
       x2="533.79"
       y1="204.22"
       y2="546.5"
       gradientTransform="matrix(0,-0.608,0.608,0,163,849)"
       gradientUnits="userSpaceOnUse"
       spreadMethod="reflect"
       xlink:href="#a" />
    <linearGradient
       id="at"
       x1="464.84"
       x2="526.74"
       y1="540.63"
       y2="540.63"
       gradientTransform="matrix(0,-0.608,0.608,0,163,849)"
       gradientUnits="userSpaceOnUse"
       spreadMethod="reflect"
       xlink:href="#a" />
    <linearGradient
       id="av"
       x1="441.36"
       x2="526.16"
       y1="450.22"
       y2="545.91"
       gradientTransform="matrix(0,-0.608,0.608,0,163,849)"
       gradientUnits="userSpaceOnUse"
       spreadMethod="reflect"
       xlink:href="#a" />
    <linearGradient
       id="bb"
       x1="465.59"
       x2="558.53"
       y1="547.43"
       y2="548.74"
       gradientTransform="matrix(0,-0.608,0.608,0,163,849)"
       gradientUnits="userSpaceOnUse"
       spreadMethod="reflect"
       xlink:href="#a" />
    <linearGradient
       id="am"
       x1="428.05"
       x2="499.23"
       y1="596.18"
       y2="594.86"
       gradientTransform="rotate(90,481,595)"
       gradientUnits="userSpaceOnUse"
       xlink:href="#a" />
    <linearGradient
       id="aj"
       x1="412.03"
       x2="499.23"
       y1="677.76"
       y2="594.86"
       gradientTransform="rotate(90,481,595)"
       gradientUnits="userSpaceOnUse"
       xlink:href="#a" />
    <linearGradient
       id="ak"
       x1="417.47"
       x2="488.37"
       y1="606.18"
       y2="607.1"
       gradientTransform="rotate(90,481,595)"
       gradientUnits="userSpaceOnUse"
       xlink:href="#a" />
    <linearGradient
       id="al"
       x1="442.24"
       x2="505.3"
       y1="610.56"
       y2="618.79"
       gradientTransform="rotate(90,481,595)"
       gradientUnits="userSpaceOnUse"
       xlink:href="#a" />
    <linearGradient
       id="ay"
       x1="467.63"
       x2="558.53"
       y1="534.47"
       y2="543.84"
       gradientTransform="matrix(0,-0.608,0.608,0,163,849)"
       gradientUnits="userSpaceOnUse"
       spreadMethod="reflect"
       xlink:href="#a" />
    <linearGradient
       id="ax"
       x1="490.67"
       x2="591.32"
       y1="536.43"
       y2="549.43"
       gradientTransform="matrix(0,-0.608,0.608,0,163,849)"
       gradientUnits="userSpaceOnUse"
       spreadMethod="reflect"
       xlink:href="#a" />
    <linearGradient
       id="as"
       x1="424.21"
       x2="526.74"
       y1="648.28"
       y2="540.63"
       gradientTransform="matrix(0,-0.608,0.608,0,163,849)"
       gradientUnits="userSpaceOnUse"
       spreadMethod="reflect"
       xlink:href="#a" />
    <linearGradient
       id="aw"
       x1="431.38"
       x2="526.74"
       y1="539.45"
       y2="540.63"
       gradientTransform="matrix(0,-0.608,0.608,0,163,849)"
       gradientUnits="userSpaceOnUse"
       spreadMethod="reflect"
       xlink:href="#a" />
    <linearGradient
       id="ae"
       x1="129.94"
       x2="175.67"
       y1="37.637"
       y2="37.637"
       gradientTransform="translate(402,539)"
       gradientUnits="userSpaceOnUse"
       xlink:href="#a" />
    <linearGradient
       id="ad"
       x1="77.188"
       x2="129.94"
       y1="78.621"
       y2="78.621"
       gradientTransform="translate(402,539)"
       gradientUnits="userSpaceOnUse"
       xlink:href="#a" />
    <linearGradient
       id="ac"
       x1="-21.293"
       x2="27.948"
       y1="32.576"
       y2="32.576"
       gradientTransform="translate(402,539)"
       gradientUnits="userSpaceOnUse"
       xlink:href="#a" />
    <linearGradient
       id="ab"
       x1="145.05"
       x2="167.39"
       y1="-12.051"
       y2="-12.051"
       gradientTransform="translate(402,539)"
       gradientUnits="userSpaceOnUse"
       xlink:href="#a" />
    <linearGradient
       id="aa"
       x1="159.1"
       x2="167.39"
       y1="2.407"
       y2="2.407"
       gradientTransform="translate(402,539)"
       gradientUnits="userSpaceOnUse"
       xlink:href="#a" />
    <linearGradient
       id="z"
       x1="120.84"
       x2="167.39"
       y1="37.637"
       y2="37.637"
       gradientTransform="translate(402,539)"
       gradientUnits="userSpaceOnUse"
       xlink:href="#a" />
    <linearGradient
       id="y"
       x1="120.84"
       x2="167.39"
       y1="24.19"
       y2="24.19"
       gradientTransform="translate(402,539)"
       gradientUnits="userSpaceOnUse"
       xlink:href="#a" />
    <linearGradient
       id="x"
       x1="27.948"
       x2="77.188"
       y1="81.832"
       y2="81.832"
       gradientTransform="translate(402,539)"
       gradientUnits="userSpaceOnUse"
       xlink:href="#a" />
    <linearGradient
       id="w"
       x1="-21.293"
       x2="-.7314"
       y1="-4.1256"
       y2="-4.1256"
       gradientTransform="translate(402,539)"
       gradientUnits="userSpaceOnUse"
       xlink:href="#a" />
    <linearGradient
       id="v"
       x1="77.188"
       x2="120.84"
       y1="76.583"
       y2="76.583"
       gradientTransform="translate(402,539)"
       gradientUnits="userSpaceOnUse"
       xlink:href="#a" />
    <linearGradient
       id="u"
       x1="-.7314"
       x2="48.509"
       y1="31.697"
       y2="31.697"
       gradientTransform="translate(402,539)"
       gradientUnits="userSpaceOnUse"
       xlink:href="#a" />
    <linearGradient
       id="t"
       x1="-21.293"
       x2="27.948"
       y1="31.697"
       y2="31.697"
       gradientTransform="translate(402,539)"
       gradientUnits="userSpaceOnUse"
       xlink:href="#a" />
    <linearGradient
       id="s"
       x1="27.948"
       x2="77.188"
       y1="77.655"
       y2="77.655"
       gradientTransform="translate(402,539)"
       gradientUnits="userSpaceOnUse"
       xlink:href="#a" />
    <linearGradient
       id="r"
       x1="120.84"
       x2="159.1"
       y1="24.19"
       y2="24.19"
       gradientTransform="translate(402,539)"
       gradientUnits="userSpaceOnUse"
       xlink:href="#a" />
    <linearGradient
       id="q"
       x1="126.83"
       x2="159.1"
       y1="-13.588"
       y2="-13.588"
       gradientTransform="translate(402,539)"
       gradientUnits="userSpaceOnUse"
       xlink:href="#a" />
    <linearGradient
       id="p"
       x1="48.509"
       x2="85.87"
       y1="76.583"
       y2="76.583"
       gradientTransform="translate(402,539)"
       gradientUnits="userSpaceOnUse"
       xlink:href="#a" />
    <linearGradient
       id="o"
       x1="91.573"
       x2="126.83"
       y1="-23.319"
       y2="-23.319"
       gradientTransform="translate(402,539)"
       gradientUnits="userSpaceOnUse"
       xlink:href="#a" />
    <linearGradient
       id="n"
       x1="94.55"
       x2="159.11"
       y1="-10.958"
       y2="-10.958"
       gradientTransform="translate(402,539)"
       gradientUnits="userSpaceOnUse"
       xlink:href="#a" />
    <linearGradient
       id="m"
       x1="85.87"
       x2="126.83"
       y1="24.827"
       y2="24.827"
       gradientTransform="translate(402,539)"
       gradientUnits="userSpaceOnUse"
       xlink:href="#a" />
    <linearGradient
       id="l"
       x1="85.87"
       x2="126.83"
       y1="16.83"
       y2="16.83"
       gradientTransform="translate(402,539)"
       gradientUnits="userSpaceOnUse"
       xlink:href="#a" />
    <linearGradient
       id="k"
       x1="-21.294"
       x2="19.831"
       y1="-3.63"
       y2="-3.63"
       gradientTransform="translate(402,539)"
       gradientUnits="userSpaceOnUse"
       xlink:href="#a" />
    <linearGradient
       id="j"
       x1="-.7314"
       x2="48.509"
       y1="20.046"
       y2="20.046"
       gradientTransform="translate(402,539)"
       gradientUnits="userSpaceOnUse"
       xlink:href="#a" />
    <linearGradient
       id="i"
       x1="-.7314"
       x2="29.672"
       y1="-18.52"
       y2="-18.52"
       gradientTransform="translate(402,539)"
       gradientUnits="userSpaceOnUse"
       xlink:href="#a" />
    <linearGradient
       id="h"
       x1="19.83"
       x2="57.191"
       y1="-19.399"
       y2="-19.399"
       gradientTransform="translate(402,539)"
       gradientUnits="userSpaceOnUse"
       xlink:href="#a" />
    <linearGradient
       id="g"
       x1="48.509"
       x2="85.87"
       y1="22.271"
       y2="22.271"
       gradientTransform="translate(402,539)"
       gradientUnits="userSpaceOnUse"
       xlink:href="#a" />
    <linearGradient
       id="f"
       x1="19.83"
       x2="57.191"
       y1="20.046"
       y2="20.046"
       gradientTransform="translate(402,539)"
       gradientUnits="userSpaceOnUse"
       xlink:href="#a" />
    <linearGradient
       id="e"
       x1="19.831"
       x2="94.55"
       y1="-14.13"
       y2="-14.13"
       gradientTransform="translate(402,539)"
       gradientUnits="userSpaceOnUse"
       xlink:href="#a" />
    <linearGradient
       id="d"
       x1="57.191"
       x2="94.553"
       y1="16.83"
       y2="16.83"
       gradientTransform="translate(402,539)"
       gradientUnits="userSpaceOnUse"
       xlink:href="#a" />
    <linearGradient
       id="c"
       x1="57.191"
       x2="94.553"
       y1="-23.319"
       y2="-23.319"
       gradientTransform="translate(402,539)"
       gradientUnits="userSpaceOnUse"
       xlink:href="#a" />
  </defs>
  <g
     transform="matrix(1.24,0,0,1.24,-471,-573)"
     id="g242">
    <path
       d="m 497,523 -38,-4 35,-10 z"
       fill="url(#c)"
       opacity="0.58621"
       id="path86"
       style="fill:url(#c)" />
    <path
       d="m 497,523 -9,66 -29,-57 z"
       fill="url(#d)"
       opacity="0.58621"
       id="path88"
       style="fill:url(#d)" />
    <path
       d="m 459,519 -37,8 37,5 37,-9 z m 37,4 h 1 v 0 z m -74,4 v 0 1 z"
       fill="url(#e)"
       opacity="0.58621"
       id="path90"
       style="fill:url(#e)" />
    <path
       d="m 459,532 -8,60 -29,-65 z"
       fill="url(#f)"
       opacity="0.58621"
       id="path92"
       style="fill:url(#f)" />
    <path
       d="m 459,532 29,57 -37,3 z"
       fill="url(#g)"
       opacity="0.58621"
       id="path94"
       style="fill:url(#g)" />
    <path
       d="m 459,519 -37,9 10,-15 z"
       fill="url(#h)"
       opacity="0.58621"
       id="path96"
       style="fill:url(#h)" />
    <path
       d="m 422,528 -21,1 31,-16 z"
       fill="url(#i)"
       opacity="0.58621"
       id="path98"
       style="fill:url(#i)" />
    <path
       d="m 422,527 29,65 -50,-50 z"
       fill="url(#j)"
       opacity="0.58621"
       id="path100"
       style="fill:url(#j)" />
    <path
       d="m 422,527 v 1 0 z m 0,1 -21,1 -20,15 20,-2 z m -41,16 z"
       fill="url(#k)"
       opacity="0.58621"
       id="path102"
       style="fill:url(#k)" />
    <path
       d="m 529,535 -41,54 9,-66 z"
       fill="url(#l)"
       opacity="0.58621"
       id="path104"
       style="fill:url(#l)" />
    <path
       d="m 529,535 -6,59 -35,-5 z"
       fill="url(#m)"
       opacity="0.58621"
       id="path106"
       style="fill:url(#m)" />
    <path
       d="m 529,522 -32,1 32,12 32,-1 z m 32,12 z m -64,-11 z"
       fill="url(#n)"
       opacity="0.58621"
       id="path108"
       style="fill:url(#n)" />
    <path
       d="m 529,522 -32,1 -3,-14 z"
       fill="url(#o)"
       opacity="0.58621"
       id="path110"
       style="fill:url(#o)" />
    <path
       d="m 488,589 -9,54 -28,-51 z"
       fill="url(#p)"
       opacity="0.58621"
       id="path112"
       style="fill:url(#p)" />
    <path
       d="m 561,534 -32,-12 18,-4 z"
       fill="url(#q)"
       opacity="0.58621"
       id="path114"
       style="fill:url(#q)" />
    <path
       d="m 561,534 -38,60 6,-59 z"
       fill="url(#r)"
       opacity="0.58621"
       id="path116"
       style="fill:url(#r)" />
    <path
       d="m 451,592 28,51 -49,-43 z"
       fill="url(#s)"
       opacity="0.58621"
       id="path118"
       style="fill:url(#s)" />
    <path
       d="m 401,542 29,58 -49,-56 z"
       fill="url(#t)"
       opacity="0.58621"
       id="path120"
       style="fill:url(#t)" />
    <path
       d="m 401,542 50,50 -21,8 z"
       fill="url(#u)"
       opacity="0.58621"
       id="path122"
       style="fill:url(#u)" />
    <path
       d="m 523,594 -44,49 9,-54 z"
       fill="url(#v)"
       opacity="0.58621"
       id="path124"
       style="fill:url(#v)" />
    <path
       d="m 401,529 -20,15 17,-18 z"
       fill="url(#w)"
       opacity="0.58621"
       id="path126"
       style="fill:url(#w)" />
    <path
       d="m 430,600 49,43 -46,-33 z"
       fill="url(#x)"
       opacity="0.58621"
       id="path128"
       style="fill:url(#x)" />
    <path
       d="m 569,550 -46,44 38,-60 z"
       fill="url(#y)"
       opacity="0.58621"
       id="path130"
       style="fill:url(#y)" />
    <path
       d="m 569,550 -37,54 -9,-10 z"
       fill="url(#z)"
       opacity="0.58621"
       id="path132"
       style="fill:url(#z)" />
    <path
       d="m 569,550 -8,-16 v 0 l 8,3 z"
       fill="url(#aa)"
       opacity="0.58621"
       id="path134"
       style="fill:url(#aa)" />
    <path
       d="m 569,537 -8,-3 -14,-16 z"
       fill="url(#ab)"
       opacity="0.58621"
       id="path136"
       style="fill:url(#ab)" />
    <path
       d="m 381,544 49,56 -41,-40 z"
       fill="url(#ac)"
       opacity="0.58621"
       id="path138"
       style="fill:url(#ac)" />
    <path
       d="m 532,604 -53,39 44,-49 z"
       fill="url(#ad)"
       opacity="0.58621"
       id="path140"
       style="fill:url(#ad)" />
    <path
       d="m 578,553 -46,51 37,-54 z"
       fill="url(#ae)"
       opacity="0.58621"
       id="path142"
       style="fill:url(#ae)" />
    <path
       d="m 494,509 -35,10 -27,-6 z"
       fill="url(#ai)"
       id="path144"
       style="fill:url(#ai)" />
    <path
       d="m 432,513 -31,16 -3,-3 z"
       fill="url(#bw)"
       id="path146"
       style="fill:url(#bw)" />
    <path
       d="m 547,518 -18,4 -35,-13 z"
       fill="url(#ah)"
       id="path148"
       style="fill:url(#ah)" />
    <path
       d="m 381,544 8,3 9,-21 z"
       fill="url(#bv)"
       id="path150"
       style="fill:url(#bv)" />
    <path
       d="m 381,544 z m 0,0 8,16 8,3 -8,-16 z m 16,19 v 1 z"
       fill="url(#bu)"
       opacity="0.77155"
       id="path152"
       style="fill:url(#bu)" />
    <path
       d="m 398,526 -9,21 22,-5 z"
       fill="url(#bt)"
       id="path154"
       style="fill:url(#bt)" />
    <path
       d="m 433,610 46,33 -11,-27 z"
       color="#000000"
       fill="url(#as)"
       id="path156"
       style="fill:url(#as)" />
    <path
       d="m 578,553 -9,-16 -8,-3 z"
       fill="url(#bs)"
       id="path158"
       style="fill:url(#bs)" />
    <path
       d="m 578,553 -9,-3 v -13 z"
       fill="url(#br)"
       id="path160"
       style="fill:url(#br)" />
    <path
       d="m 389,560 44,50 -36,-47 z"
       fill="url(#bq)"
       id="path162"
       style="fill:url(#bq)" />
    <path
       d="m 389,560 41,40 3,10 z"
       fill="url(#bp)"
       id="path164"
       style="fill:url(#bp)" />
    <path
       d="m 561,534 8,3 -22,-19 z"
       fill="url(#bo)"
       id="path166"
       style="fill:url(#bo)" />
    <path
       d="m 389,547 8,17 14,-22 z"
       fill="url(#bn)"
       id="path168"
       style="fill:url(#bn)" />
    <path
       d="m 509,613 -30,30 53,-39 z"
       fill="url(#bm)"
       id="path170"
       style="fill:url(#bm)" />
    <path
       d="m 468,616 11,27 30,-30 z"
       color="#000000"
       fill="url(#aw)"
       id="path172"
       style="fill:url(#aw)" />
    <path
       d="m 557,568 -48,45 23,-9 z"
       color="#000000"
       fill="url(#ax)"
       id="path174"
       style="fill:url(#ax)" />
    <path
       d="m 557,568 -25,36 46,-51 z"
       color="#000000"
       fill="url(#ak)"
       id="path176"
       style="fill:url(#ak)" />
    <path
       d="m 578,553 h -1 z m -1,0 -20,2 -20,15 20,-2 z m -40,17 z"
       fill="url(#bl)"
       opacity="0.77155"
       id="path178"
       style="fill:url(#bl)" />
    <path
       d="m 557,555 21,-2 -17,-19 z"
       fill="url(#bk)"
       id="path180"
       style="fill:url(#bk)" />
    <path
       d="m 411,542 19,20 35,-11 z"
       fill="url(#bj)"
       id="path182"
       style="fill:url(#bj)" />
    <path
       d="m 397,564 33,-2 -19,-20 z"
       fill="url(#bi)"
       id="path184"
       style="fill:url(#bi)" />
    <path
       d="m 397,563 36,47 -3,-35 z"
       color="#000000"
       fill="url(#aj)"
       id="path186"
       style="fill:url(#aj)" />
    <path
       d="m 430,562 -32,2 32,11 31,-1 z m 31,12 h 1 v 0 z m -63,-10 -1,-1 v 1 z"
       fill="url(#bh)"
       opacity="0.77155"
       id="path188"
       style="fill:url(#bh)" />
    <path
       d="m 527,548 30,7 4,-21 z"
       fill="url(#bf)"
       id="path190"
       style="fill:url(#bf)" />
    <path
       d="m 430,575 3,35 35,6 z"
       color="#000000"
       fill="url(#ay)"
       id="path192"
       style="fill:url(#ay)" />
    <path
       d="m 430,575 38,41 -6,-42 z"
       color="#000000"
       fill="url(#al)"
       id="path194"
       style="fill:url(#al)" />
    <path
       d="m 430,562 32,12 3,-23 z"
       fill="url(#be)"
       id="path196"
       style="fill:url(#be)" />
    <path
       d="m 537,570 20,-15 -30,-7 z"
       fill="url(#bd)"
       id="path198"
       style="fill:url(#bd)" />
    <path
       d="m 537,570 -28,43 48,-45 z"
       fill="url(#bc)"
       id="path200"
       style="fill:url(#bc)" />
    <path
       d="m 465,551 34,14 28,-17 z"
       fill="url(#ar)"
       id="path202"
       style="fill:url(#ar)" />
    <path
       d="m 499,578 -31,38 41,-3 z"
       color="#000000"
       fill="url(#bb)"
       id="path204"
       style="fill:url(#bb)" />
    <path
       d="m 499,578 10,35 28,-43 z"
       color="#000000"
       fill="url(#am)"
       id="path206"
       style="fill:url(#am)" />
    <path
       d="m 499,565 -37,9 37,4 37,-8 z m 37,5 h 1 v 0 z m -74,4 z"
       fill="url(#aq)"
       opacity="0.77155"
       id="path208"
       style="fill:url(#aq)" />
    <path
       d="m 499,565 38,5 -10,-22 z"
       fill="url(#ap)"
       id="path210"
       style="fill:url(#ap)" />
    <path
       d="m 462,574 37,-9 -34,-14 z"
       color="#000000"
       fill="url(#ao)"
       id="path212"
       style="fill:url(#ao)" />
    <path
       d="m 462,574 6,42 31,-38 z"
       fill="url(#an)"
       id="path214"
       style="fill:url(#an)" />
    <g
       opacity=".84052"
       id="g232">
      <path
         d="m 494,509 -62,4 47,17 z"
         color="#000000"
         fill="url(#at)"
         id="path216"
         style="fill:url(#at)" />
      <path
         d="m 547,518 -53,-9 -15,21 z"
         fill="url(#ag)"
         id="path218"
         style="fill:url(#ag)" />
      <path
         d="m 432,513 -34,13 81,4 z"
         color="#000000"
         fill="url(#au)"
         id="path220"
         style="fill:url(#au)" />
      <path
         d="m 398,526 13,16 68,-12 z"
         color="#000000"
         fill="url(#az)"
         id="path222"
         style="fill:url(#az)" />
      <path
         d="m 561,534 -14,-16 -68,12 z"
         fill="url(#af)"
         id="path224"
         style="fill:url(#af)" />
      <path
         d="m 411,542 54,9 14,-21 z"
         color="#000000"
         fill="url(#ba)"
         id="path226"
         style="fill:url(#ba)" />
      <path
         d="m 527,548 34,-14 -82,-4 z"
         fill="url(#bg)"
         id="path228"
         style="fill:url(#bg)" />
      <path
         d="m 465,551 62,-3 -48,-18 z"
         color="#000000"
         fill="url(#av)"
         id="path230"
         style="fill:url(#av)" />
    </g>
    <g
       fill="#fff"
       id="g240">
      <path
         d="m 525,481 -1,61 -28,-32 -8,-10 35,45 -42,1 h 3 -12 l 51,1 -28,35 v 1 0 l -7,9 18,-21 18,-21 1,61 1,-59 v 46 l 1,-48 35,42 -31,-39 27,30 -29,-36 49,-1 h -10 4 l -44,-1 30,-36 -23,26 27,-35 -35,42 -1,-49 v 47 z"
         color="#000000"
         id="path234" />
      <path
         d="m 459,513 -1,35 -16,-19 -5,-5 20,26 h -23 1 -7 l 30,1 -16,20 h -1 v 1 l -4,5 11,-13 10,-12 1,36 v -34 l 1,26 v -27 l 20,24 -18,-23 16,18 -17,-21 28,-1 h -6 3 -25 l 17,-21 -13,15 15,-20 -20,24 v -28 l -1,26 z"
         color="#000000"
         id="path236" />
      <path
         d="m 474,513 h -37 l 19,-18 6,-5 -27,22 -1,-26 v 2 -7 l -1,31 -21,-17 h -1 v 0 l -5,-5 13,11 13,12 h -38 l 36,1 h -28 l 29,1 -25,21 24,-19 -19,17 22,-18 1,29 v -6 3 l 1,-27 22,19 -16,-14 21,16 -26,-21 30,-1 h -28 z"
         color="#000000"
         id="path238" />
    </g>
  </g>
</svg>
