<?xml version="1.0" encoding="UTF-8" standalone="no"?>
<svg
   xmlns:dc="http://purl.org/dc/elements/1.1/"
   xmlns:cc="http://creativecommons.org/ns#"
   xmlns:rdf="http://www.w3.org/1999/02/22-rdf-syntax-ns#"
   xmlns:svg="http://www.w3.org/2000/svg"
   xmlns="http://www.w3.org/2000/svg"
   xmlns:sodipodi="http://sodipodi.sourceforge.net/DTD/sodipodi-0.dtd"
   xmlns:inkscape="http://www.inkscape.org/namespaces/inkscape"
   width="46.432652"
   height="29.556047"
   version="1.1"
   id="svg144"
   sodipodi:docname="Web10.svg"
   inkscape:version="1.0.2 (e86c870879, 2021-01-15)">
  <metadata
     id="metadata148">
    <rdf:RDF>
      <cc:Work
         rdf:about="">
        <dc:format>image/svg+xml</dc:format>
        <dc:type
           rdf:resource="http://purl.org/dc/dcmitype/StillImage" />
        <dc:title />
      </cc:Work>
    </rdf:RDF>
  </metadata>
  <sodipodi:namedview
     pagecolor="#ffffff"
     bordercolor="#666666"
     borderopacity="1"
     objecttolerance="10"
     gridtolerance="10"
     guidetolerance="10"
     inkscape:pageopacity="0"
     inkscape:pageshadow="2"
     inkscape:window-width="1366"
     inkscape:window-height="695"
     id="namedview146"
     showgrid="false"
     fit-margin-top="0"
     fit-margin-left="0"
     fit-margin-right="0"
     fit-margin-bottom="0"
     inkscape:zoom="7.3067701"
     inkscape:cx="23.301493"
     inkscape:cy="7.2823781"
     inkscape:window-x="0"
     inkscape:window-y="0"
     inkscape:window-maximized="1"
     inkscape:current-layer="g136"
     inkscape:document-rotation="0" />
  <defs
     id="defs124" />
  <g
     transform="matrix(-1.33333,0,0,-1.02128,52.671946,1050.1857)"
     id="g142">
    <g
       fill="url(#t)"
       stroke="#333333"
       stroke-width="0.857"
       id="g136"
       style="fill:none"
       transform="translate(-1.9090028,-1.2010566)">
      <path
         id="path126"
         style="fill:none;stroke:none;stroke-width:1.00005"
         d="m 49.146484,12.558594 c -0.06923,0.290496 -0.286656,0.449383 -1.039062,0.953125 -0.956074,0.640776 -14.081719,11.607273 -17.90625,14.68164 4.784968,3.185592 14.964254,9.836543 15.621094,10.371094 0.831998,0.676087 0.831444,0.675781 1.662109,0.675781 0.831998,0 0.831445,3.06e-4 1.662109,-0.675781 z"
         transform="matrix(-0.75000188,0,0,-0.9791634,43.909108,1039.4766)" />
      <path
         id="path128"
         style="fill:none;stroke:none;stroke-width:1.00005"
         d="m 3.9433594,12.5625 v 26.007812 c 0.8306646,0.670981 0.8320646,0.669922 1.6640625,0.669922 0.8306646,0 0.8301114,0.0011 1.6621093,-0.669922 C 7.9254336,38.041306 18.155168,31.417565 22.955078,28.25 22.944118,28.2412 22.907608,28.2101 22.896488,28.20117 20.157847,26.000658 12.873381,19.942821 8.3144531,16.197266 6.5286451,14.730069 5.2481816,13.692485 4.9785156,13.511719 4.6298431,13.278652 4.4214099,13.127369 4.2617188,12.996094 4.2219545,12.962424 4.1790485,12.923609 4.1484375,12.892578 4.0432784,12.787694 3.9719454,12.679447 3.9433594,12.5625 Z"
         transform="matrix(-0.75000188,0,0,-0.9791634,43.909108,1039.4766)" />
      <path
         d="M 40.11,1000.9928 H 7.903"
         fill="url(#w)"
         id="path130"
         style="fill:none;stroke:none"
         sodipodi:nodetypes="cc" />
      <path
         d="M 40.173,1029.075 H 7.827 c -0.809,-0.707 -0.809,-0.707 -0.809,-1.414 0,-0.707 0,-0.707 0.81,-1.415 0.808,-0.707 13.747,-14.851 14.556,-15.559 0.808,-0.707 0.808,-0.707 1.617,-0.707 0.809,0 0.809,0 1.617,0.707 0.81,0.708 13.748,14.852 14.557,15.56 0.809,0.706 0.809,0.707 0.8085,1.414 -5e-4,0.707 -5e-4,0.707 -0.8105,1.414 z"
         fill="url(#z)"
         stroke-width="0.859"
         id="path134"
         style="fill:none;stroke:none"
         sodipodi:nodetypes="ccsccscccc" />
    </g>
  </g>
</svg>
