<?xml version="1.0" encoding="UTF-8" standalone="no"?>
<svg
   xmlns:dc="http://purl.org/dc/elements/1.1/"
   xmlns:cc="http://creativecommons.org/ns#"
   xmlns:rdf="http://www.w3.org/1999/02/22-rdf-syntax-ns#"
   xmlns:svg="http://www.w3.org/2000/svg"
   xmlns="http://www.w3.org/2000/svg"
   xmlns:sodipodi="http://sodipodi.sourceforge.net/DTD/sodipodi-0.dtd"
   xmlns:inkscape="http://www.inkscape.org/namespaces/inkscape"
   viewBox="0 0 128.68138 74.243004"
   version="1.1"
   id="svg142"
   sodipodi:docname="Web35.svg"
   inkscape:version="1.0.2 (e86c870879, 2021-01-15)"
   width="128.68138"
   height="74.243004">
  <metadata
     id="metadata148">
    <rdf:RDF>
      <cc:Work
         rdf:about="">
        <dc:format>image/svg+xml</dc:format>
        <dc:type
           rdf:resource="http://purl.org/dc/dcmitype/StillImage" />
        <dc:title />
      </cc:Work>
    </rdf:RDF>
  </metadata>
  <defs
     id="defs146" />
  <sodipodi:namedview
     pagecolor="#ffffff"
     bordercolor="#666666"
     borderopacity="1"
     objecttolerance="10"
     gridtolerance="10"
     guidetolerance="10"
     inkscape:pageopacity="0"
     inkscape:pageshadow="2"
     inkscape:window-width="1366"
     inkscape:window-height="695"
     id="namedview144"
     showgrid="false"
     inkscape:zoom="1.1137558"
     inkscape:cx="14.251888"
     inkscape:cy="-69.350829"
     inkscape:window-x="0"
     inkscape:window-y="0"
     inkscape:window-maximized="1"
     inkscape:current-layer="g140"
     inkscape:document-rotation="0"
     fit-margin-top="0"
     fit-margin-left="0"
     fit-margin-right="0"
     fit-margin-bottom="0" />
  <g
     fill="none"
     stroke="#000000"
     stroke-width="3"
     id="g140"
     transform="translate(-0.50201144,-349.333)">
    <g
       transform="translate(-263.748,243.903)"
       id="g108"
       style="stroke-width:2;stroke-miterlimit:4;stroke-dasharray:none;fill:none;stroke:none">
      <path
         d="m 300.17,168.55 c 6.61,5.385 14.045,9.135 20.487,9.135 h 14.869 c 4.84154,7.5e-4 9.10422,-7.99133 5.863,-13.5092 M 332.47,138.16 h 51.519 c 6.11696,0.001 9.94002,-6.62144 6.88,-11.918 -1.41911,-2.45797 -4.04178,-3.97211 -6.88,-3.972 h -68.92"
         id="path92"
         style="stroke-width:2;stroke-miterlimit:4;stroke-dasharray:none;fill:none;stroke:none"
         sodipodi:nodetypes="csccccccc" />
      <path
         d="m 332.47,154.05 h 6.494 c 6.11696,10e-4 7.94002,-8.62144 4.88,-13.918 -1.41911,-2.45797 -4.04178,-1.97211 -6.88,-1.972 h -4.494"
         id="path94"
         style="stroke-width:2;stroke-miterlimit:4;stroke-dasharray:none;fill:none;stroke:none"
         sodipodi:nodetypes="ccccc" />
      <path
         d="m 332.47,165.94 h 4.494 c 6.11696,0.001 9.69052,-8.6705 6.6305,-13.96706 -2.85436,2.67133 -3.79228,2.07696 -6.6305,2.07706 h -4.494 m -12.81,-31.73 h 28.654 c 6.11696,0.001 9.94002,-6.62144 6.88,-11.918 -1.41896,-2.45812 -4.04172,-3.97231 -6.88,-3.972 h -27.638 c -9.59,0 -15.173,3.382 -20.447,8.18"
         id="path96"
         style="stroke-width:2;stroke-miterlimit:4;stroke-dasharray:none;fill:none;stroke:none"
         sodipodi:nodetypes="cccccccccsc" />
      <path
         d="m 333.48,106.7 a 7.944,7.944 0 0 0 11.918,6.88 7.944,7.944 0 0 0 3.972,-6.88"
         id="path98"
         style="stroke-width:2;stroke-miterlimit:4;stroke-dasharray:none;fill:none;stroke:none" />
      <rect
         transform="rotate(90)"
         x="114.61"
         y="-300.23001"
         width="64.063004"
         height="34.98"
         rx="2.424"
         ry="2.424"
         paint-order="markers fill stroke"
         id="rect100"
         style="stroke-width:2;stroke-miterlimit:4;stroke-dasharray:none;fill:none;stroke:none" />
      <rect
         transform="rotate(90)"
         x="114.61"
         y="-300.23001"
         width="64.063004"
         height="34.98"
         rx="2.424"
         ry="2.424"
         paint-order="markers fill stroke"
         id="rect102"
         style="stroke-width:2;stroke-miterlimit:4;stroke-dasharray:none;fill:none;stroke:none" />
      <path
         d="m 380.58,134.84 a 4.6265,4.6265 0 1 1 0,-9.253 h 2.734 a 4.6265,4.6265 0 1 1 0,9.253 z"
         id="path104"
         style="stroke-width:2;stroke-miterlimit:4;stroke-dasharray:none;fill:none;stroke:none" />
      <circle
         transform="rotate(90)"
         cx="168.53999"
         cy="-290.09"
         r="6.112"
         paint-order="markers fill stroke"
         id="circle106"
         style="stroke-width:2;stroke-miterlimit:4;stroke-dasharray:none;fill:none;stroke:none" />
    </g>
  </g>
</svg>
